<?xml version="1.0"?>
<!-- Created by MetaPost 1.9991 on 2018.09.25:1105 -->
<svg version="1.1" xmlns="http://www.w3.org/2000/svg" xmlns:xlink="http://www.w3.org/1999/xlink" width="452.071457" height="268.169983" viewBox="0 0 452.071457 268.169983">
<!-- Original BoundingBox: -0.597763 -42.333527 451.473694 225.836456 -->
  <defs>
    <g transform="scale(0.009963,0.009963)" id="GLYPHcmss10_65">
      <path style="fill-rule: evenodd;" d="M377.000000 -694.000000L289.000000 -694.000000L28.000000 -0.000000L102.000000 -0.000000L179.000000 -204.000000L470.000000 -204.000000L546.000000 -0.000000L638.000000 -0.000000M448.000000 -260.000000L200.000000 -260.000000L265.000000 -441.000000C286.000000 -500.000000,317.000000 -585.000000,324.000000 -622.000000L325.000000 -622.000000C327.000000 -608.000000,334.000000 -583.000000,357.000000 -517.000000"></path>
    </g>
    <g transform="scale(0.009963,0.009963)" id="GLYPHcmss10_66">
      <path style="fill-rule: evenodd;" d="M97.000000 -694.000000L97.000000 -0.000000L361.000000 -0.000000C505.000000 -0.000000,610.000000 -90.000000,610.000000 -188.000000C610.000000 -275.000000,523.000000 -346.000000,417.000000 -363.000000C508.000000 -386.000000,583.000000 -444.000000,583.000000 -520.000000C583.000000 -612.000000,476.000000 -694.000000,334.000000 -694.000000M180.000000 -391.000000L180.000000 -638.000000L306.000000 -638.000000C417.000000 -638.000000,505.000000 -585.000000,505.000000 -519.000000C505.000000 -459.000000,434.000000 -391.000000,296.000000 -391.000000M180.000000 -56.000000L180.000000 -330.000000L325.000000 -330.000000C431.000000 -330.000000,529.000000 -269.000000,529.000000 -189.000000C529.000000 -114.000000,441.000000 -56.000000,333.000000 -56.000000"></path>
    </g>
    <g transform="scale(0.009963,0.009963)" id="GLYPHcmss10_68">
      <path style="fill-rule: evenodd;" d="M96.000000 -694.000000L96.000000 -0.000000L359.000000 -0.000000C529.000000 -0.000000,665.000000 -152.000000,665.000000 -341.000000C665.000000 -535.000000,530.000000 -694.000000,358.000000 -694.000000M182.000000 -56.000000L182.000000 -638.000000L335.000000 -638.000000C475.000000 -638.000000,579.000000 -517.000000,579.000000 -341.000000C579.000000 -171.000000,475.000000 -56.000000,335.000000 -56.000000"></path>
    </g>
    <g transform="scale(0.009963,0.009963)" id="GLYPHcmss10_69">
      <path style="fill-rule: evenodd;" d="M513.000000 -329.000000L513.000000 -390.000000L183.000000 -390.000000L183.000000 -627.000000L321.000000 -627.000000C333.000000 -627.000000,345.000000 -626.000000,357.000000 -626.000000L540.000000 -626.000000L540.000000 -691.000000L94.000000 -691.000000L94.000000 -0.000000L554.000000 -0.000000L554.000000 -71.000000L428.000000 -71.000000C416.000000 -71.000000,404.000000 -70.000000,392.000000 -70.000000L183.000000 -70.000000L183.000000 -329.000000"></path>
    </g>
    <g transform="scale(0.009963,0.009963)" id="GLYPHcmss10_70">
      <path style="fill-rule: evenodd;" d="M485.000000 -315.000000L485.000000 -376.000000L183.000000 -376.000000L183.000000 -627.000000L314.000000 -627.000000C326.000000 -627.000000,338.000000 -626.000000,350.000000 -626.000000L526.000000 -626.000000L526.000000 -691.000000L94.000000 -691.000000L94.000000 -0.000000L183.000000 -0.000000L183.000000 -315.000000"></path>
    </g>
    <g transform="scale(0.009963,0.009963)" id="GLYPHcmss10_71">
      <path style="fill-rule: evenodd;" d="M600.000000 -299.000000L389.000000 -299.000000L389.000000 -237.000000L521.000000 -237.000000L521.000000 -74.000000C481.000000 -60.000000,433.000000 -53.000000,390.000000 -53.000000C258.000000 -53.000000,156.000000 -186.000000,156.000000 -348.000000C156.000000 -505.000000,256.000000 -641.000000,388.000000 -641.000000C469.000000 -641.000000,526.000000 -617.000000,577.000000 -575.000000L591.000000 -657.000000C535.000000 -692.000000,457.000000 -706.000000,391.000000 -706.000000C198.000000 -706.000000,66.000000 -531.000000,66.000000 -348.000000C66.000000 -166.000000,199.000000 11.000000,391.000000 11.000000C465.000000 11.000000,533.000000 -9.000000,600.000000 -38.000000"></path>
    </g>
    <g transform="scale(0.009963,0.009963)" id="GLYPHcmss10_73">
      <path style="fill-rule: evenodd;" d="M183.000000 -694.000000L94.000000 -694.000000L94.000000 -0.000000L183.000000 -0.000000"></path>
    </g>
    <g transform="scale(0.009963,0.009963)" id="GLYPHcmss10_77">
      <path style="fill-rule: evenodd;" d="M530.000000 -355.000000C495.000000 -264.000000,448.000000 -140.000000,437.000000 -93.000000L436.000000 -93.000000C431.000000 -114.000000,419.000000 -151.000000,404.000000 -193.000000L247.000000 -607.000000L213.000000 -694.000000L100.000000 -694.000000L100.000000 -0.000000L178.000000 -0.000000L178.000000 -620.000000L179.000000 -620.000000C185.000000 -588.000000,225.000000 -479.000000,251.000000 -411.000000L399.000000 -22.000000L472.000000 -22.000000L605.000000 -370.000000C637.000000 -452.000000,646.000000 -477.000000,653.000000 -497.000000C663.000000 -526.000000,690.000000 -598.000000,695.000000 -621.000000L696.000000 -620.000000L696.000000 -0.000000L774.000000 -0.000000L774.000000 -694.000000L660.000000 -694.000000"></path>
    </g>
    <g transform="scale(0.009963,0.009963)" id="GLYPHcmss10_83">
      <path style="fill-rule: evenodd;" d="M465.000000 -666.000000C410.000000 -699.000000,355.000000 -716.000000,282.000000 -716.000000C143.000000 -716.000000,56.000000 -618.000000,56.000000 -519.000000C56.000000 -476.000000,70.000000 -434.000000,110.000000 -392.000000C152.000000 -347.000000,196.000000 -335.000000,255.000000 -321.000000C340.000000 -300.000000,350.000000 -297.000000,378.000000 -272.000000C398.000000 -255.000000,420.000000 -222.000000,420.000000 -179.000000C420.000000 -113.000000,365.000000 -47.000000,274.000000 -47.000000C233.000000 -47.000000,143.000000 -57.000000,59.000000 -128.000000L44.000000 -47.000000C132.000000 8.000000,212.000000 22.000000,275.000000 22.000000C407.000000 22.000000,499.000000 -79.000000,499.000000 -189.000000C499.000000 -254.000000,468.000000 -302.000000,446.000000 -326.000000C399.000000 -376.000000,366.000000 -385.000000,274.000000 -408.000000C216.000000 -422.000000,200.000000 -426.000000,170.000000 -452.000000C163.000000 -458.000000,135.000000 -487.000000,135.000000 -531.000000C135.000000 -590.000000,189.000000 -650.000000,281.000000 -650.000000C365.000000 -650.000000,413.000000 -617.000000,450.000000 -586.000000"></path>
    </g>
    <g transform="scale(0.009963,0.009963)" id="GLYPHcmss10_84">
      <path style="fill-rule: evenodd;" d="M385.000000 -624.000000L474.000000 -624.000000C486.000000 -624.000000,498.000000 -623.000000,510.000000 -623.000000L644.000000 -623.000000L644.000000 -688.000000L36.000000 -688.000000L36.000000 -623.000000L170.000000 -623.000000C182.000000 -623.000000,194.000000 -624.000000,206.000000 -624.000000L296.000000 -624.000000L296.000000 -0.000000L385.000000 -0.000000"></path>
    </g>
    <g transform="scale(0.009963,0.009963)" id="GLYPHcmss10_86">
      <path style="fill-rule: evenodd;" d="M652.000000 -694.000000L574.000000 -694.000000L441.000000 -352.000000C425.000000 -311.000000,350.000000 -118.000000,341.000000 -72.000000L340.000000 -72.000000C332.000000 -112.000000,289.000000 -222.000000,280.000000 -246.000000L107.000000 -694.000000L14.000000 -694.000000L287.000000 -0.000000L379.000000 -0.000000"></path>
    </g>
    <g transform="scale(0.009963,0.009963)" id="GLYPHcmss10_88">
      <path style="fill-rule: evenodd;" d="M369.000000 -366.000000L610.000000 -694.000000L514.000000 -694.000000L326.000000 -433.000000L132.000000 -694.000000L28.000000 -694.000000L283.000000 -366.000000L14.000000 -0.000000L110.000000 -0.000000L326.000000 -306.000000L548.000000 -0.000000L652.000000 -0.000000"></path>
    </g>
    <g transform="scale(0.009963,0.009963)" id="GLYPHcmss10_101">
      <path style="fill-rule: evenodd;" d="M414.000000 -219.000000C414.000000 -253.000000,413.000000 -328.000000,374.000000 -388.000000C333.000000 -450.000000,272.000000 -461.000000,236.000000 -461.000000C125.000000 -461.000000,35.000000 -355.000000,35.000000 -226.000000C35.000000 -94.000000,131.000000 11.000000,251.000000 11.000000C314.000000 11.000000,371.000000 -13.000000,410.000000 -41.000000L404.000000 -106.000000C341.000000 -54.000000,275.000000 -50.000000,252.000000 -50.000000C172.000000 -50.000000,108.000000 -121.000000,105.000000 -219.000000M110.000000 -274.000000C126.000000 -350.000000,179.000000 -400.000000,236.000000 -400.000000C288.000000 -400.000000,344.000000 -366.000000,357.000000 -274.000000"></path>
    </g>
    <g transform="scale(0.009963,0.009963)" id="GLYPHcmss10_105">
      <path style="fill-rule: evenodd;" d="M163.000000 -680.000000L74.000000 -680.000000L74.000000 -591.000000L163.000000 -591.000000M156.000000 -444.000000L81.000000 -444.000000L81.000000 -0.000000L156.000000 -0.000000"></path>
    </g>
    <g transform="scale(0.009963,0.009963)" id="GLYPHcmss10_114">
      <path style="fill-rule: evenodd;" d="M157.000000 -214.000000C157.000000 -314.000000,229.000000 -386.000000,327.000000 -388.000000L327.000000 -455.000000C238.000000 -454.000000,183.000000 -405.000000,152.000000 -359.000000L152.000000 -450.000000L82.000000 -450.000000L82.000000 -0.000000L157.000000 -0.000000"></path>
    </g>
    <g transform="scale(0.009963,0.009963)" id="GLYPHcmss10_118">
      <path style="fill-rule: evenodd;" d="M446.000000 -444.000000L371.000000 -444.000000L292.000000 -236.000000C271.000000 -181.000000,240.000000 -100.000000,232.000000 -53.000000L231.000000 -53.000000C225.000000 -89.000000,199.000000 -158.000000,189.000000 -185.000000L92.000000 -444.000000L14.000000 -444.000000L186.000000 -0.000000L274.000000 -0.000000"></path>
    </g>
  </defs>
  <g transform="translate(104.585754 35.560684)" style="fill: rgb(0.000000%,0.000000%,0.000000%);">
    <use xlink:href="#GLYPHcmss10_84"></use>
  </g>
  <g transform="translate(109.705154 37.774582)" style="fill: rgb(0.000000%,0.000000%,0.000000%);">
    <use xlink:href="#GLYPHcmss10_69"></use>
  </g>
  <g transform="translate(114.409653 35.560684)" style="fill: rgb(0.000000%,0.000000%,0.000000%);">
    <use xlink:href="#GLYPHcmss10_88"></use>
  </g>
  <g transform="translate(104.585754 80.688126)" style="fill: rgb(0.000000%,0.000000%,0.000000%);">
    <use xlink:href="#GLYPHcmss10_84"></use>
  </g>
  <g transform="translate(109.705154 82.902023)" style="fill: rgb(0.000000%,0.000000%,0.000000%);">
    <use xlink:href="#GLYPHcmss10_69"></use>
  </g>
  <g transform="translate(114.409653 80.688126)" style="fill: rgb(0.000000%,0.000000%,0.000000%);">
    <use xlink:href="#GLYPHcmss10_88"></use>
  </g>
  <g transform="translate(192.488129 81.795074)" style="fill: rgb(0.000000%,0.000000%,0.000000%);">
    <use xlink:href="#GLYPHcmss10_84"></use>
    <use xlink:href="#GLYPHcmss10_70" x="6.805681"></use>
    <use xlink:href="#GLYPHcmss10_77" x="12.500245"></use>
  </g>
  <g transform="translate(104.654755 126.922516)" style="fill: rgb(0.000000%,0.000000%,0.000000%);">
    <use xlink:href="#GLYPHcmss10_68"></use>
  </g>
  <g transform="translate(111.573257 126.922516)" style="fill: rgb(0.000000%,0.000000%,0.000000%);">
    <use xlink:href="#GLYPHcmss10_86"></use>
    <use xlink:href="#GLYPHcmss10_73" x="6.666793"></use>
  </g>
  <g transform="translate(286.133072 126.922516)" style="fill: rgb(0.000000%,0.000000%,0.000000%);">
    <use xlink:href="#GLYPHcmss10_77"></use>
    <use xlink:href="#GLYPHcmss10_70" x="8.750185"></use>
  </g>
  <g transform="translate(376.387955 126.922516)" style="fill: rgb(0.000000%,0.000000%,0.000000%);">
    <use xlink:href="#GLYPHcmss10_77"></use>
    <use xlink:href="#GLYPHcmss10_70" x="8.750185"></use>
  </g>
  <g transform="translate(100.116196 172.049957)" style="fill: rgb(0.000000%,0.000000%,0.000000%);">
    <use xlink:href="#GLYPHcmss10_68"></use>
    <use xlink:href="#GLYPHcmss10_114" x="7.222374"></use>
    <use xlink:href="#GLYPHcmss10_105" x="10.639122"></use>
    <use xlink:href="#GLYPHcmss10_118" x="13.028058"></use>
    <use xlink:href="#GLYPHcmss10_101" x="17.639258"></use>
    <use xlink:href="#GLYPHcmss10_114" x="22.083787"></use>
  </g>
  <g transform="translate(196.915985 172.049957)" style="fill: rgb(0.000000%,0.000000%,0.000000%);">
    <use xlink:href="#GLYPHcmss10_71"></use>
    <use xlink:href="#GLYPHcmss10_70" x="6.666793"></use>
  </g>
  <g transform="translate(11.978363 81.795074)" style="fill: rgb(0.000000%,0.000000%,0.000000%);">
    <use xlink:href="#GLYPHcmss10_70"></use>
    <use xlink:href="#GLYPHcmss10_77" x="5.694564"></use>
    <use xlink:href="#GLYPHcmss10_84" x="14.444749"></use>
  </g>
  <g transform="translate(283.919159 81.795074)" style="fill: rgb(0.000000%,0.000000%,0.000000%);">
    <use xlink:href="#GLYPHcmss10_66"></use>
    <use xlink:href="#GLYPHcmss10_65" x="6.666793"></use>
    <use xlink:href="#GLYPHcmss10_83" x="13.333586"></use>
  </g>
  <path d="M90.254883 262.606201L90.254883 202.436279L135.382324 202.436279L135.382324 262.606201" style="stroke:rgb(0.000000%,0.000000%,0.000000%); stroke-width: 1.195511;stroke-linecap: round;stroke-linejoin: round;stroke-miterlimit: 10.000000;fill: none;"></path>
  <path d="M90.254883 262.606201C91.261307 255.530106,99.032639 251.644440,105.297363 255.084961C108.445923 256.814133,110.182846 260.195236,112.818604 262.606201C114.924850 264.532791,117.544647 265.790192,120.339844 266.366821C125.664978 267.465347,131.200638 266.081421,135.382324 262.606201" style="stroke:rgb(0.000000%,0.000000%,0.000000%); stroke-width: 1.195511;stroke-linecap: round;stroke-linejoin: round;stroke-miterlimit: 10.000000;fill: none;"></path>
  <path d="M95.895813 244.555237L129.741394 244.555237" style="stroke:rgb(0.000000%,0.000000%,0.000000%); stroke-width: 0.398499;stroke-linecap: round;stroke-linejoin: round;stroke-miterlimit: 10.000000;fill: none;"></path>
  <path d="M95.895813 239.290375L129.741394 239.290375" style="stroke:rgb(0.000000%,0.000000%,0.000000%); stroke-width: 0.398499;stroke-linecap: round;stroke-linejoin: round;stroke-miterlimit: 10.000000;fill: none;"></path>
  <path d="M95.895813 228.760651L129.741394 228.760651" style="stroke:rgb(0.000000%,0.000000%,0.000000%); stroke-width: 0.398499;stroke-linecap: round;stroke-linejoin: round;stroke-miterlimit: 10.000000;fill: none;"></path>
  <path d="M95.895813 223.495789L129.741394 223.495789" style="stroke:rgb(0.000000%,0.000000%,0.000000%); stroke-width: 0.398499;stroke-linecap: round;stroke-linejoin: round;stroke-miterlimit: 10.000000;fill: none;"></path>
  <path d="M95.895813 218.230927L129.741394 218.230927" style="stroke:rgb(0.000000%,0.000000%,0.000000%); stroke-width: 0.398499;stroke-linecap: round;stroke-linejoin: round;stroke-miterlimit: 10.000000;fill: none;"></path>
  <path d="M95.895813 207.701202L129.741394 207.701202" style="stroke:rgb(0.000000%,0.000000%,0.000000%); stroke-width: 0.398499;stroke-linecap: round;stroke-linejoin: round;stroke-miterlimit: 10.000000;fill: none;"></path>
  <path d="M95.895813 202.436340L129.741394 202.436340" style="stroke:rgb(0.000000%,0.000000%,0.000000%); stroke-width: 0.398499;stroke-linecap: round;stroke-linejoin: round;stroke-miterlimit: 10.000000;fill: none;"></path>
  <path d="M101.536743 249.820099L129.741394 249.820099" style="stroke:rgb(0.000000%,0.000000%,0.000000%); stroke-width: 0.398499;stroke-linecap: round;stroke-linejoin: round;stroke-miterlimit: 10.000000;fill: none;"></path>
  <path d="M101.536743 234.025513L129.741394 234.025513" style="stroke:rgb(0.000000%,0.000000%,0.000000%); stroke-width: 0.398499;stroke-linecap: round;stroke-linejoin: round;stroke-miterlimit: 10.000000;fill: none;"></path>
  <path d="M101.536743 212.966064L129.741394 212.966064" style="stroke:rgb(0.000000%,0.000000%,0.000000%); stroke-width: 0.398499;stroke-linecap: round;stroke-linejoin: round;stroke-miterlimit: 10.000000;fill: none;"></path>
  <path d="M90.254883 44.490234L135.382324 44.490234L135.382324 21.926514L90.254883 21.926514Z" style="stroke:rgb(0.000000%,0.000000%,0.000000%); stroke-width: 1.195511;stroke-linecap: round;stroke-linejoin: round;stroke-miterlimit: 10.000000;fill: none;"></path>
  <path d="M135.382324 78.335815C135.382324 75.343552,133.004623 72.474197,128.773239 70.358505C124.541855 68.242813,118.803146 67.053955,112.818604 67.053955C106.834061 67.053955,101.095352 68.242813,96.863968 70.358505C92.632584 72.474197,90.254883 75.343552,90.254883 78.335815C90.254883 81.328079,92.632584 84.197433,96.863968 86.313126C101.095352 88.428818,106.834061 89.617676,112.818604 89.617676C118.803146 89.617676,124.541855 88.428818,128.773239 86.313126C133.004623 84.197433,135.382324 81.328079,135.382324 78.335815Z" style="stroke:rgb(0.000000%,0.000000%,0.000000%); stroke-width: 1.195511;stroke-linecap: round;stroke-linejoin: round;stroke-miterlimit: 10.000000;fill: none;"></path>
  <path d="M180.509766 89.617676L225.637207 89.617676L225.637207 67.053955L180.509766 67.053955Z" style="stroke:rgb(0.000000%,0.000000%,0.000000%); stroke-width: 1.195511;stroke-linecap: round;stroke-linejoin: round;stroke-miterlimit: 10.000000;fill: none;"></path>
  <path d="M90.254883 134.745117L135.382324 134.745117L135.382324 112.181396L90.254883 112.181396Z" style="stroke:rgb(0.000000%,0.000000%,0.000000%); stroke-width: 1.195511;stroke-linecap: round;stroke-linejoin: round;stroke-miterlimit: 10.000000;fill: none;"></path>
  <path d="M315.892090 123.463257C315.892090 120.470993,313.514389 117.601639,309.283005 115.485947C305.051620 113.370255,299.312912 112.181396,293.328369 112.181396C287.343826 112.181396,281.605118 113.370255,277.373734 115.485947C273.142349 117.601639,270.764648 120.470993,270.764648 123.463257C270.764648 126.455521,273.142349 129.324875,277.373734 131.440567C281.605118 133.556259,287.343826 134.745117,293.328369 134.745117C299.312912 134.745117,305.051620 133.556259,309.283005 131.440567C313.514389 129.324875,315.892090 126.455521,315.892090 123.463257Z" style="stroke:rgb(0.000000%,0.000000%,0.000000%); stroke-width: 1.195511;stroke-linecap: round;stroke-linejoin: round;stroke-miterlimit: 10.000000;fill: none;"></path>
  <path d="M361.019531 134.745117L406.146973 134.745117L406.146973 112.181396L361.019531 112.181396Z" style="stroke:rgb(0.000000%,0.000000%,0.000000%); stroke-width: 1.195511;stroke-linecap: round;stroke-linejoin: round;stroke-miterlimit: 10.000000;fill: none;"></path>
  <path d="M135.382324 168.590698C135.382324 165.598434,133.004623 162.729080,128.773239 160.613388C124.541855 158.497696,118.803146 157.308838,112.818604 157.308838C106.834061 157.308838,101.095352 158.497696,96.863968 160.613388C92.632584 162.729080,90.254883 165.598434,90.254883 168.590698C90.254883 171.582962,92.632584 174.452316,96.863968 176.568008C101.095352 178.683701,106.834061 179.872559,112.818604 179.872559C118.803146 179.872559,124.541855 178.683701,128.773239 176.568008C133.004623 174.452316,135.382324 171.582962,135.382324 168.590698Z" style="stroke:rgb(0.000000%,0.000000%,0.000000%); stroke-width: 1.195511;stroke-linecap: round;stroke-linejoin: round;stroke-miterlimit: 10.000000;fill: none;"></path>
  <path d="M180.509766 179.872559L225.637207 179.872559L225.637207 157.308838L180.509766 157.308838Z" style="stroke:rgb(0.000000%,0.000000%,0.000000%); stroke-width: 1.195511;stroke-linecap: round;stroke-linejoin: round;stroke-miterlimit: 10.000000;fill: none;"></path>
  <path d="M0.000000 89.617676L45.127441 89.617676L45.127441 67.053955L0.000000 67.053955Z" style="stroke:rgb(0.000000%,0.000000%,0.000000%); stroke-width: 1.195511;stroke-linecap: round;stroke-linejoin: round;stroke-miterlimit: 10.000000;fill: none;"></path>
  <path d="M270.764648 89.617676L315.892090 89.617676L315.892090 67.053955L270.764648 67.053955Z" style="stroke:rgb(0.000000%,0.000000%,0.000000%); stroke-width: 1.195511;stroke-linecap: round;stroke-linejoin: round;stroke-miterlimit: 10.000000;fill: none;"></path>
  <path d="M112.818604 21.926514L114.014114 15.948868L111.623093 15.948868Z" style="fill: rgb(0.000000%,0.000000%,0.000000%);stroke: none;"></path>
  <path d="M112.818604 -0.637207L112.818604 15.948868" style="stroke:rgb(0.000000%,0.000000%,0.000000%); stroke-width: 0.398499;stroke-linecap: round;stroke-linejoin: round;stroke-miterlimit: 10.000000;fill: none;"></path>
  <path d="M112.818604 67.053955L114.014114 61.076309L111.623093 61.076309Z" style="fill: rgb(0.000000%,0.000000%,0.000000%);stroke: none;"></path>
  <path d="M112.818604 44.490234L112.818604 61.076309" style="stroke:rgb(0.000000%,0.000000%,0.000000%); stroke-width: 0.398499;stroke-linecap: round;stroke-linejoin: round;stroke-miterlimit: 10.000000;fill: none;"></path>
  <path d="M135.382324 78.335815L141.359970 79.531326L141.359970 77.140305Z" style="fill: rgb(0.000000%,0.000000%,0.000000%);stroke: none;"></path>
  <path d="M180.509766 78.335815L141.359970 78.335815" style="stroke:rgb(0.000000%,0.000000%,0.000000%); stroke-width: 0.398499;stroke-linecap: round;stroke-linejoin: round;stroke-miterlimit: 10.000000;fill: none;"></path>
  <path d="M112.818604 112.181396L114.014114 106.203751L111.623093 106.203751Z" style="fill: rgb(0.000000%,0.000000%,0.000000%);stroke: none;"></path>
  <path d="M112.818604 89.617676L112.818604 106.203751" style="stroke:rgb(0.000000%,0.000000%,0.000000%); stroke-width: 0.398499;stroke-linecap: round;stroke-linejoin: round;stroke-miterlimit: 10.000000;fill: none;"></path>
  <path d="M406.146973 123.463257L412.124634 124.658768L412.124634 122.267746Z" style="fill: rgb(0.000000%,0.000000%,0.000000%);stroke: none;"></path>
  <path d="M451.274445 123.463257L412.124634 123.463257" style="stroke:rgb(0.000000%,0.000000%,0.000000%); stroke-width: 0.398499;stroke-linecap: round;stroke-linejoin: round;stroke-miterlimit: 10.000000;fill: none;"></path>
  <path d="M315.892090 123.463257L321.869736 124.658768L321.869736 122.267746Z" style="fill: rgb(0.000000%,0.000000%,0.000000%);stroke: none;"></path>
  <path d="M361.019531 123.463257L321.869736 123.463257" style="stroke:rgb(0.000000%,0.000000%,0.000000%); stroke-width: 0.398499;stroke-linecap: round;stroke-linejoin: round;stroke-miterlimit: 10.000000;fill: none;"></path>
  <path d="M203.073486 89.617676L201.877975 95.595505L204.268997 95.595505Z" style="fill: rgb(0.000000%,0.000000%,0.000000%);stroke: none;"></path>
  <path d="M270.764648 123.463257L218.017273 123.463257C209.764053 123.463257,203.073486 116.772690,203.073486 108.519470L203.073486 95.595505" style="stroke:rgb(0.000000%,0.000000%,0.000000%); stroke-width: 0.398499;stroke-linecap: round;stroke-linejoin: round;stroke-miterlimit: 10.000000;fill: none;"></path>
  <path d="M203.073486 157.308838L204.268997 151.331009L201.877975 151.331009Z" style="fill: rgb(0.000000%,0.000000%,0.000000%);stroke: none;"></path>
  <path d="M270.764648 123.463257L218.017273 123.463257C209.764053 123.463257,203.073486 130.153824,203.073486 138.407043L203.073486 151.331009" style="stroke:rgb(0.000000%,0.000000%,0.000000%); stroke-width: 0.398499;stroke-linecap: round;stroke-linejoin: round;stroke-miterlimit: 10.000000;fill: none;"></path>
  <path d="M112.818604 157.308838L114.014114 151.331192L111.623093 151.331192Z" style="fill: rgb(0.000000%,0.000000%,0.000000%);stroke: none;"></path>
  <path d="M112.818604 134.745117L112.818604 151.331192" style="stroke:rgb(0.000000%,0.000000%,0.000000%); stroke-width: 0.398499;stroke-linecap: round;stroke-linejoin: round;stroke-miterlimit: 10.000000;fill: none;"></path>
  <path d="M135.382324 168.590698L141.359970 169.786209L141.359970 167.395187Z" style="fill: rgb(0.000000%,0.000000%,0.000000%);stroke: none;"></path>
  <path d="M180.509766 168.590698L141.359970 168.590698" style="stroke:rgb(0.000000%,0.000000%,0.000000%); stroke-width: 0.398499;stroke-linecap: round;stroke-linejoin: round;stroke-miterlimit: 10.000000;fill: none;"></path>
  <path d="M112.818604 202.436279L114.014114 196.458633L111.623093 196.458633Z" style="fill: rgb(0.000000%,0.000000%,0.000000%);stroke: none;"></path>
  <path d="M112.818604 179.872559L112.818604 196.458633" style="stroke:rgb(0.000000%,0.000000%,0.000000%); stroke-width: 0.398499;stroke-linecap: round;stroke-linejoin: round;stroke-miterlimit: 10.000000;fill: none;"></path>
  <path d="M90.254883 78.335815L84.277237 77.140305L84.277237 79.531326Z" style="fill: rgb(0.000000%,0.000000%,0.000000%);stroke: none;"></path>
  <path d="M45.127441 78.335815L84.277237 78.335815" style="stroke:rgb(0.000000%,0.000000%,0.000000%); stroke-width: 0.398499;stroke-linecap: round;stroke-linejoin: round;stroke-miterlimit: 10.000000;fill: none;"></path>
  <path d="M293.328369 112.181396L294.523880 106.203751L292.132858 106.203751Z" style="fill: rgb(0.000000%,0.000000%,0.000000%);stroke: none;"></path>
  <path d="M293.328369 89.617676L293.328369 106.203751" style="stroke:rgb(0.000000%,0.000000%,0.000000%); stroke-width: 0.398499;stroke-linecap: round;stroke-linejoin: round;stroke-miterlimit: 10.000000;fill: none;"></path>
</svg>
