<?xml version="1.0"?>
<!-- Created by MetaPost 1.9991 on 2018.09.26:1434 -->
<svg version="1.1" xmlns="http://www.w3.org/2000/svg" xmlns:xlink="http://www.w3.org/1999/xlink" width="436.230133" height="227.767410" viewBox="0 0 436.230133 227.767410">
<!-- Original BoundingBox: -0.498138 -0.498138 435.731995 227.269272 -->
  <defs>
    <g transform="scale(0.009963,0.009963)" id="GLYPHcmsy10_76">
      <path style="fill-rule: evenodd;" d="M180.000000 -93.000000C234.000000 -177.000000,251.000000 -241.000000,264.000000 -294.000000C299.000000 -432.000000,337.000000 -552.000000,399.000000 -621.000000C411.000000 -634.000000,419.000000 -643.000000,451.000000 -643.000000C520.000000 -643.000000,522.000000 -574.000000,522.000000 -560.000000C522.000000 -542.000000,517.000000 -528.000000,517.000000 -523.000000C517.000000 -516.000000,523.000000 -516.000000,524.000000 -516.000000C540.000000 -516.000000,567.000000 -527.000000,592.000000 -545.000000C610.000000 -559.000000,619.000000 -569.000000,619.000000 -610.000000C619.000000 -664.000000,591.000000 -705.000000,535.000000 -705.000000C503.000000 -705.000000,415.000000 -697.000000,317.000000 -598.000000C237.000000 -516.000000,190.000000 -336.000000,171.000000 -261.000000C153.000000 -192.000000,145.000000 -161.000000,115.000000 -101.000000C108.000000 -89.000000,82.000000 -45.000000,68.000000 -32.000000C41.000000 -7.000000,31.000000 11.000000,31.000000 16.000000C31.000000 18.000000,33.000000 22.000000,40.000000 22.000000C44.000000 22.000000,65.000000 18.000000,91.000000 1.000000C108.000000 -9.000000,110.000000 -11.000000,133.000000 -35.000000C183.000000 -34.000000,218.000000 -25.000000,281.000000 -7.000000C332.000000 7.000000,383.000000 22.000000,434.000000 22.000000C515.000000 22.000000,597.000000 -39.000000,629.000000 -83.000000C649.000000 -110.000000,655.000000 -135.000000,655.000000 -138.000000C655.000000 -145.000000,649.000000 -145.000000,648.000000 -145.000000C632.000000 -145.000000,608.000000 -134.000000,591.000000 -122.000000C564.000000 -105.000000,562.000000 -99.000000,556.000000 -82.000000C551.000000 -66.000000,545.000000 -58.000000,541.000000 -52.000000C533.000000 -40.000000,532.000000 -40.000000,517.000000 -40.000000C469.000000 -40.000000,419.000000 -55.000000,353.000000 -73.000000C325.000000 -81.000000,270.000000 -97.000000,220.000000 -97.000000C207.000000 -97.000000,193.000000 -96.000000,180.000000 -93.000000"></path>
    </g>
    <g transform="scale(0.011955,0.011955)" id="GLYPHcmr12_65">
      <path style="fill-rule: evenodd;" d="M387.000000 -696.000000C383.000000 -708.000000,381.000000 -714.000000,367.000000 -714.000000C353.000000 -714.000000,351.000000 -711.000000,346.000000 -695.000000L137.000000 -97.000000C123.000000 -56.000000,95.000000 -30.000000,31.000000 -29.000000L31.000000 -0.000000C92.000000 -2.000000,94.000000 -2.000000,127.000000 -2.000000C155.000000 -2.000000,203.000000 -2.000000,229.000000 -0.000000L229.000000 -29.000000C187.000000 -30.000000,162.000000 -51.000000,162.000000 -79.000000C162.000000 -85.000000,162.000000 -87.000000,167.000000 -100.000000L213.000000 -233.000000L465.000000 -233.000000L520.000000 -76.000000C525.000000 -64.000000,525.000000 -62.000000,525.000000 -59.000000C525.000000 -29.000000,474.000000 -29.000000,449.000000 -29.000000L449.000000 -0.000000C472.000000 -2.000000,551.000000 -2.000000,579.000000 -2.000000C607.000000 -2.000000,679.000000 -2.000000,702.000000 -0.000000L702.000000 -29.000000C637.000000 -29.000000,619.000000 -29.000000,605.000000 -70.000000M339.000000 -595.000000L455.000000 -262.000000L223.000000 -262.000000"></path>
    </g>
    <g transform="scale(0.011955,0.011955)" id="GLYPHcmr12_67">
      <path style="fill-rule: evenodd;" d="M652.000000 -681.000000C652.000000 -699.000000,652.000000 -704.000000,642.000000 -704.000000C636.000000 -704.000000,635.000000 -702.000000,629.000000 -692.000000L580.000000 -613.000000C535.000000 -669.000000,467.000000 -704.000000,395.000000 -704.000000C212.000000 -704.000000,54.000000 -546.000000,54.000000 -342.000000C54.000000 -135.000000,214.000000 21.000000,395.000000 21.000000C559.000000 21.000000,652.000000 -122.000000,652.000000 -232.000000C652.000000 -243.000000,652.000000 -249.000000,641.000000 -249.000000C631.000000 -249.000000,630.000000 -244.000000,630.000000 -237.000000C621.000000 -78.000000,505.000000 -8.000000,408.000000 -8.000000C338.000000 -8.000000,147.000000 -50.000000,147.000000 -342.000000C147.000000 -631.000000,335.000000 -675.000000,407.000000 -675.000000C512.000000 -675.000000,604.000000 -586.000000,624.000000 -436.000000C626.000000 -424.000000,626.000000 -421.000000,638.000000 -421.000000C652.000000 -421.000000,652.000000 -424.000000,652.000000 -444.000000"></path>
    </g>
    <g transform="scale(0.011955,0.011955)" id="GLYPHcmr12_68">
      <path style="fill-rule: evenodd;" d="M42.000000 -683.000000L42.000000 -654.000000L62.000000 -654.000000C134.000000 -654.000000,137.000000 -644.000000,137.000000 -607.000000L137.000000 -76.000000C137.000000 -39.000000,134.000000 -29.000000,62.000000 -29.000000L42.000000 -29.000000L42.000000 -0.000000L392.000000 -0.000000C559.000000 -0.000000,693.000000 -150.000000,693.000000 -335.000000C693.000000 -528.000000,558.000000 -683.000000,392.000000 -683.000000M262.000000 -29.000000C218.000000 -29.000000,216.000000 -36.000000,216.000000 -69.000000L216.000000 -614.000000C216.000000 -647.000000,218.000000 -654.000000,262.000000 -654.000000L367.000000 -654.000000C450.000000 -654.000000,516.000000 -614.000000,557.000000 -548.000000C602.000000 -477.000000,602.000000 -376.000000,602.000000 -336.000000C602.000000 -280.000000,601.000000 -186.000000,544.000000 -112.000000C511.000000 -70.000000,451.000000 -29.000000,367.000000 -29.000000"></path>
    </g>
    <g transform="scale(0.011955,0.011955)" id="GLYPHcmr12_70">
      <path style="fill-rule: evenodd;" d="M571.000000 -681.000000L41.000000 -681.000000L41.000000 -652.000000L61.000000 -652.000000C133.000000 -652.000000,136.000000 -642.000000,136.000000 -605.000000L136.000000 -76.000000C136.000000 -39.000000,133.000000 -29.000000,61.000000 -29.000000L41.000000 -29.000000L41.000000 -0.000000C65.000000 -2.000000,154.000000 -2.000000,184.000000 -2.000000C219.000000 -2.000000,307.000000 -2.000000,336.000000 -0.000000L336.000000 -29.000000L306.000000 -29.000000C219.000000 -29.000000,217.000000 -41.000000,217.000000 -77.000000L217.000000 -326.000000L305.000000 -326.000000C399.000000 -326.000000,409.000000 -293.000000,409.000000 -209.000000L431.000000 -209.000000L431.000000 -472.000000L409.000000 -472.000000C409.000000 -388.000000,399.000000 -355.000000,305.000000 -355.000000L217.000000 -355.000000L217.000000 -612.000000C217.000000 -645.000000,219.000000 -652.000000,263.000000 -652.000000L388.000000 -652.000000C532.000000 -652.000000,561.000000 -599.000000,575.000000 -458.000000L597.000000 -458.000000"></path>
    </g>
    <g transform="scale(0.011955,0.011955)" id="GLYPHcmr12_78">
      <path style="fill-rule: evenodd;" d="M226.000000 -669.000000C217.000000 -682.000000,216.000000 -683.000000,194.000000 -683.000000L41.000000 -683.000000L41.000000 -654.000000C84.000000 -654.000000,109.000000 -654.000000,136.000000 -647.000000L136.000000 -105.000000C136.000000 -76.000000,136.000000 -29.000000,41.000000 -29.000000L41.000000 -0.000000C67.000000 -2.000000,120.000000 -2.000000,148.000000 -2.000000C176.000000 -2.000000,229.000000 -2.000000,255.000000 -0.000000L255.000000 -29.000000C160.000000 -29.000000,160.000000 -76.000000,160.000000 -105.000000L160.000000 -631.000000C168.000000 -623.000000,168.000000 -621.000000,177.000000 -609.000000L567.000000 -15.000000C577.000000 -1.000000,578.000000 -0.000000,585.000000 -0.000000C594.000000 -0.000000,596.000000 -4.000000,597.000000 -6.000000L597.000000 -578.000000C597.000000 -607.000000,597.000000 -654.000000,692.000000 -654.000000L692.000000 -683.000000C666.000000 -681.000000,613.000000 -681.000000,585.000000 -681.000000C557.000000 -681.000000,504.000000 -681.000000,478.000000 -683.000000L478.000000 -654.000000C573.000000 -654.000000,573.000000 -607.000000,573.000000 -578.000000L573.000000 -141.000000"></path>
    </g>
    <g transform="scale(0.011955,0.011955)" id="GLYPHcmr12_97">
      <path style="fill-rule: evenodd;" d="M386.000000 -267.000000C386.000000 -321.000000,386.000000 -361.000000,342.000000 -400.000000C307.000000 -432.000000,262.000000 -446.000000,218.000000 -446.000000C136.000000 -446.000000,73.000000 -392.000000,73.000000 -327.000000C73.000000 -298.000000,92.000000 -284.000000,115.000000 -284.000000C139.000000 -284.000000,156.000000 -301.000000,156.000000 -325.000000C156.000000 -366.000000,120.000000 -366.000000,105.000000 -366.000000C128.000000 -408.000000,176.000000 -426.000000,216.000000 -426.000000C262.000000 -426.000000,321.000000 -388.000000,321.000000 -298.000000L321.000000 -258.000000C120.000000 -255.000000,44.000000 -171.000000,44.000000 -94.000000C44.000000 -15.000000,136.000000 10.000000,197.000000 10.000000C263.000000 10.000000,308.000000 -30.000000,327.000000 -78.000000C331.000000 -31.000000,362.000000 5.000000,405.000000 5.000000C426.000000 5.000000,484.000000 -9.000000,484.000000 -89.000000L484.000000 -145.000000L462.000000 -145.000000L462.000000 -89.000000C462.000000 -32.000000,438.000000 -24.000000,424.000000 -24.000000C386.000000 -24.000000,386.000000 -77.000000,386.000000 -92.000000M321.000000 -141.000000C321.000000 -43.000000,248.000000 -10.000000,205.000000 -10.000000C156.000000 -10.000000,115.000000 -46.000000,115.000000 -94.000000C115.000000 -226.000000,285.000000 -238.000000,321.000000 -240.000000"></path>
    </g>
    <g transform="scale(0.011955,0.011955)" id="GLYPHcmr12_98">
      <path style="fill-rule: evenodd;" d="M167.000000 -694.000000L28.000000 -683.000000L28.000000 -654.000000C96.000000 -654.000000,104.000000 -647.000000,104.000000 -598.000000L104.000000 -0.000000L126.000000 -0.000000C130.000000 -8.000000,158.000000 -58.000000,162.000000 -65.000000C185.000000 -28.000000,228.000000 10.000000,292.000000 10.000000C407.000000 10.000000,508.000000 -87.000000,508.000000 -216.000000C508.000000 -343.000000,414.000000 -441.000000,303.000000 -441.000000C248.000000 -441.000000,201.000000 -416.000000,167.000000 -374.000000M169.000000 -320.000000C169.000000 -338.000000,169.000000 -340.000000,180.000000 -356.000000C204.000000 -392.000000,248.000000 -421.000000,297.000000 -421.000000C327.000000 -421.000000,432.000000 -409.000000,432.000000 -217.000000C432.000000 -150.000000,422.000000 -108.000000,398.000000 -72.000000C378.000000 -41.000000,338.000000 -10.000000,288.000000 -10.000000C234.000000 -10.000000,199.000000 -45.000000,182.000000 -72.000000C169.000000 -93.000000,169.000000 -97.000000,169.000000 -114.000000"></path>
    </g>
    <g transform="scale(0.011955,0.011955)" id="GLYPHcmr12_99">
      <path style="fill-rule: evenodd;" d="M362.000000 -370.000000C350.000000 -370.000000,313.000000 -370.000000,313.000000 -329.000000C313.000000 -305.000000,330.000000 -288.000000,354.000000 -288.000000C377.000000 -288.000000,396.000000 -302.000000,396.000000 -331.000000C396.000000 -398.000000,326.000000 -446.000000,245.000000 -446.000000C128.000000 -446.000000,35.000000 -342.000000,35.000000 -216.000000C35.000000 -88.000000,131.000000 10.000000,244.000000 10.000000C376.000000 10.000000,406.000000 -110.000000,406.000000 -119.000000C406.000000 -128.000000,399.000000 -128.000000,396.000000 -128.000000C387.000000 -128.000000,386.000000 -125.000000,383.000000 -113.000000C361.000000 -42.000000,307.000000 -12.000000,253.000000 -12.000000C192.000000 -12.000000,111.000000 -65.000000,111.000000 -217.000000C111.000000 -383.000000,196.000000 -424.000000,246.000000 -424.000000C284.000000 -424.000000,339.000000 -409.000000,362.000000 -370.000000"></path>
    </g>
    <g transform="scale(0.011955,0.011955)" id="GLYPHcmr12_100">
      <path style="fill-rule: evenodd;" d="M300.000000 -683.000000L300.000000 -654.000000C368.000000 -654.000000,376.000000 -647.000000,376.000000 -598.000000L376.000000 -377.000000C355.000000 -406.000000,312.000000 -441.000000,251.000000 -441.000000C135.000000 -441.000000,35.000000 -343.000000,35.000000 -215.000000C35.000000 -88.000000,130.000000 10.000000,240.000000 10.000000C316.000000 10.000000,360.000000 -40.000000,374.000000 -59.000000L374.000000 10.000000L515.000000 -0.000000L515.000000 -29.000000C447.000000 -29.000000,439.000000 -36.000000,439.000000 -85.000000L439.000000 -694.000000M374.000000 -117.000000C374.000000 -99.000000,374.000000 -96.000000,360.000000 -74.000000C336.000000 -39.000000,295.000000 -10.000000,245.000000 -10.000000C219.000000 -10.000000,111.000000 -20.000000,111.000000 -214.000000C111.000000 -286.000000,123.000000 -326.000000,145.000000 -359.000000C165.000000 -390.000000,205.000000 -421.000000,255.000000 -421.000000C317.000000 -421.000000,352.000000 -376.000000,362.000000 -360.000000C374.000000 -343.000000,374.000000 -341.000000,374.000000 -323.000000"></path>
    </g>
    <g transform="scale(0.011955,0.011955)" id="GLYPHcmr12_101">
      <path style="fill-rule: evenodd;" d="M383.000000 -232.000000C405.000000 -232.000000,407.000000 -232.000000,407.000000 -251.000000C407.000000 -352.000000,353.000000 -446.000000,232.000000 -446.000000C118.000000 -446.000000,30.000000 -343.000000,30.000000 -219.000000C30.000000 -87.000000,132.000000 10.000000,243.000000 10.000000C362.000000 10.000000,407.000000 -98.000000,407.000000 -119.000000C407.000000 -125.000000,402.000000 -129.000000,396.000000 -129.000000C388.000000 -129.000000,386.000000 -124.000000,384.000000 -119.000000C358.000000 -35.000000,291.000000 -12.000000,249.000000 -12.000000C207.000000 -12.000000,106.000000 -40.000000,106.000000 -213.000000L106.000000 -232.000000M107.000000 -251.000000C115.000000 -408.000000,203.000000 -426.000000,231.000000 -426.000000C338.000000 -426.000000,344.000000 -285.000000,345.000000 -251.000000"></path>
    </g>
    <g transform="scale(0.011955,0.011955)" id="GLYPHcmr12_105">
      <path style="fill-rule: evenodd;" d="M174.000000 -616.000000C174.000000 -642.000000,153.000000 -665.000000,125.000000 -665.000000C99.000000 -665.000000,77.000000 -644.000000,77.000000 -617.000000C77.000000 -587.000000,101.000000 -568.000000,125.000000 -568.000000C156.000000 -568.000000,174.000000 -594.000000,174.000000 -616.000000M36.000000 -430.000000L36.000000 -401.000000C100.000000 -401.000000,109.000000 -395.000000,109.000000 -346.000000L109.000000 -74.000000C109.000000 -29.000000,98.000000 -29.000000,33.000000 -29.000000L33.000000 -0.000000C61.000000 -2.000000,109.000000 -2.000000,138.000000 -2.000000C149.000000 -2.000000,207.000000 -2.000000,241.000000 -0.000000L241.000000 -29.000000C176.000000 -29.000000,172.000000 -34.000000,172.000000 -73.000000L172.000000 -441.000000"></path>
    </g>
    <g transform="scale(0.011955,0.011955)" id="GLYPHcmr12_108">
      <path style="fill-rule: evenodd;" d="M172.000000 -694.000000L33.000000 -683.000000L33.000000 -654.000000C101.000000 -654.000000,109.000000 -647.000000,109.000000 -598.000000L109.000000 -74.000000C109.000000 -29.000000,98.000000 -29.000000,33.000000 -29.000000L33.000000 -0.000000C61.000000 -2.000000,110.000000 -2.000000,140.000000 -2.000000C170.000000 -2.000000,220.000000 -2.000000,248.000000 -0.000000L248.000000 -29.000000C184.000000 -29.000000,172.000000 -29.000000,172.000000 -74.000000"></path>
    </g>
    <g transform="scale(0.011955,0.011955)" id="GLYPHcmr12_109">
      <path style="fill-rule: evenodd;" d="M717.000000 -243.000000C717.000000 -336.000000,717.000000 -364.000000,694.000000 -396.000000C665.000000 -435.000000,618.000000 -441.000000,584.000000 -441.000000C501.000000 -441.000000,459.000000 -381.000000,443.000000 -342.000000C429.000000 -419.000000,375.000000 -441.000000,312.000000 -441.000000C215.000000 -441.000000,177.000000 -358.000000,169.000000 -338.000000L168.000000 -338.000000L168.000000 -441.000000L32.000000 -430.000000L32.000000 -401.000000C100.000000 -401.000000,108.000000 -394.000000,108.000000 -345.000000L108.000000 -74.000000C108.000000 -29.000000,97.000000 -29.000000,32.000000 -29.000000L32.000000 -0.000000C58.000000 -2.000000,112.000000 -2.000000,140.000000 -2.000000C169.000000 -2.000000,223.000000 -2.000000,249.000000 -0.000000L249.000000 -29.000000C185.000000 -29.000000,173.000000 -29.000000,173.000000 -74.000000L173.000000 -260.000000C173.000000 -365.000000,242.000000 -421.000000,304.000000 -421.000000C366.000000 -421.000000,380.000000 -370.000000,380.000000 -309.000000L380.000000 -74.000000C380.000000 -29.000000,369.000000 -29.000000,304.000000 -29.000000L304.000000 -0.000000C330.000000 -2.000000,384.000000 -2.000000,412.000000 -2.000000C441.000000 -2.000000,495.000000 -2.000000,521.000000 -0.000000L521.000000 -29.000000C457.000000 -29.000000,445.000000 -29.000000,445.000000 -74.000000L445.000000 -260.000000C445.000000 -365.000000,514.000000 -421.000000,576.000000 -421.000000C638.000000 -421.000000,652.000000 -370.000000,652.000000 -309.000000L652.000000 -74.000000C652.000000 -29.000000,641.000000 -29.000000,576.000000 -29.000000L576.000000 -0.000000C602.000000 -2.000000,656.000000 -2.000000,684.000000 -2.000000C713.000000 -2.000000,767.000000 -2.000000,793.000000 -0.000000L793.000000 -29.000000C743.000000 -29.000000,718.000000 -29.000000,717.000000 -59.000000"></path>
    </g>
    <g transform="scale(0.011955,0.011955)" id="GLYPHcmr12_110">
      <path style="fill-rule: evenodd;" d="M445.000000 -243.000000C445.000000 -336.000000,445.000000 -364.000000,422.000000 -396.000000C393.000000 -435.000000,346.000000 -441.000000,312.000000 -441.000000C215.000000 -441.000000,177.000000 -358.000000,169.000000 -338.000000L168.000000 -338.000000L168.000000 -441.000000L32.000000 -430.000000L32.000000 -401.000000C100.000000 -401.000000,108.000000 -394.000000,108.000000 -345.000000L108.000000 -74.000000C108.000000 -29.000000,97.000000 -29.000000,32.000000 -29.000000L32.000000 -0.000000C58.000000 -2.000000,112.000000 -2.000000,140.000000 -2.000000C169.000000 -2.000000,223.000000 -2.000000,249.000000 -0.000000L249.000000 -29.000000C185.000000 -29.000000,173.000000 -29.000000,173.000000 -74.000000L173.000000 -260.000000C173.000000 -365.000000,242.000000 -421.000000,304.000000 -421.000000C366.000000 -421.000000,380.000000 -370.000000,380.000000 -309.000000L380.000000 -74.000000C380.000000 -29.000000,369.000000 -29.000000,304.000000 -29.000000L304.000000 -0.000000C330.000000 -2.000000,384.000000 -2.000000,412.000000 -2.000000C441.000000 -2.000000,495.000000 -2.000000,521.000000 -0.000000L521.000000 -29.000000C471.000000 -29.000000,446.000000 -29.000000,445.000000 -59.000000"></path>
    </g>
    <g transform="scale(0.011955,0.011955)" id="GLYPHcmr12_111">
      <path style="fill-rule: evenodd;" d="M459.000000 -214.000000C459.000000 -343.000000,361.000000 -446.000000,245.000000 -446.000000C125.000000 -446.000000,30.000000 -340.000000,30.000000 -214.000000C30.000000 -86.000000,130.000000 10.000000,244.000000 10.000000C362.000000 10.000000,459.000000 -88.000000,459.000000 -214.000000M245.000000 -12.000000C208.000000 -12.000000,163.000000 -28.000000,134.000000 -77.000000C107.000000 -122.000000,106.000000 -181.000000,106.000000 -223.000000C106.000000 -261.000000,106.000000 -322.000000,137.000000 -367.000000C165.000000 -410.000000,209.000000 -426.000000,244.000000 -426.000000C283.000000 -426.000000,325.000000 -408.000000,352.000000 -369.000000C383.000000 -323.000000,383.000000 -260.000000,383.000000 -223.000000C383.000000 -188.000000,383.000000 -126.000000,357.000000 -79.000000C329.000000 -31.000000,283.000000 -12.000000,245.000000 -12.000000"></path>
    </g>
    <g transform="scale(0.011955,0.011955)" id="GLYPHcmr12_112">
      <path style="fill-rule: evenodd;" d="M245.000000 165.000000C181.000000 165.000000,169.000000 165.000000,169.000000 120.000000L169.000000 -54.000000C187.000000 -29.000000,228.000000 10.000000,292.000000 10.000000C407.000000 10.000000,508.000000 -87.000000,508.000000 -216.000000C508.000000 -343.000000,414.000000 -441.000000,305.000000 -441.000000C217.000000 -441.000000,170.000000 -378.000000,167.000000 -374.000000L167.000000 -441.000000L28.000000 -430.000000L28.000000 -401.000000C98.000000 -401.000000,104.000000 -394.000000,104.000000 -350.000000L104.000000 120.000000C104.000000 165.000000,93.000000 165.000000,28.000000 165.000000L28.000000 194.000000C54.000000 192.000000,108.000000 192.000000,136.000000 192.000000C165.000000 192.000000,219.000000 192.000000,245.000000 194.000000M169.000000 -319.000000C169.000000 -338.000000,169.000000 -339.000000,180.000000 -355.000000C210.000000 -400.000000,259.000000 -419.000000,297.000000 -419.000000C372.000000 -419.000000,432.000000 -328.000000,432.000000 -216.000000C432.000000 -97.000000,364.000000 -10.000000,287.000000 -10.000000C256.000000 -10.000000,227.000000 -23.000000,207.000000 -42.000000C184.000000 -65.000000,169.000000 -85.000000,169.000000 -113.000000"></path>
    </g>
    <g transform="scale(0.011955,0.011955)" id="GLYPHcmr12_114">
      <path style="fill-rule: evenodd;" d="M167.000000 -233.000000C167.000000 -330.000000,207.000000 -421.000000,284.000000 -421.000000C292.000000 -421.000000,294.000000 -421.000000,298.000000 -420.000000C290.000000 -416.000000,274.000000 -410.000000,274.000000 -383.000000C274.000000 -354.000000,297.000000 -343.000000,313.000000 -343.000000C333.000000 -343.000000,353.000000 -356.000000,353.000000 -383.000000C353.000000 -413.000000,326.000000 -441.000000,283.000000 -441.000000C198.000000 -441.000000,169.000000 -349.000000,163.000000 -330.000000L162.000000 -330.000000L162.000000 -441.000000L28.000000 -430.000000L28.000000 -401.000000C96.000000 -401.000000,104.000000 -394.000000,104.000000 -345.000000L104.000000 -74.000000C104.000000 -29.000000,93.000000 -29.000000,28.000000 -29.000000L28.000000 -0.000000C56.000000 -2.000000,111.000000 -2.000000,141.000000 -2.000000C168.000000 -2.000000,239.000000 -2.000000,262.000000 -0.000000L262.000000 -29.000000L242.000000 -29.000000C169.000000 -29.000000,167.000000 -40.000000,167.000000 -76.000000"></path>
    </g>
    <g transform="scale(0.011955,0.011955)" id="GLYPHcmr12_115">
      <path style="fill-rule: evenodd;" d="M328.000000 -423.000000C328.000000 -441.000000,328.000000 -446.000000,318.000000 -446.000000C310.000000 -446.000000,291.000000 -424.000000,284.000000 -415.000000C253.000000 -440.000000,222.000000 -446.000000,190.000000 -446.000000C69.000000 -446.000000,33.000000 -380.000000,33.000000 -325.000000C33.000000 -314.000000,33.000000 -279.000000,71.000000 -244.000000C103.000000 -216.000000,137.000000 -209.000000,183.000000 -200.000000C238.000000 -189.000000,251.000000 -186.000000,276.000000 -166.000000C294.000000 -151.000000,307.000000 -129.000000,307.000000 -101.000000C307.000000 -58.000000,282.000000 -10.000000,194.000000 -10.000000C128.000000 -10.000000,80.000000 -48.000000,58.000000 -148.000000C54.000000 -166.000000,54.000000 -167.000000,53.000000 -168.000000C51.000000 -172.000000,47.000000 -172.000000,44.000000 -172.000000C33.000000 -172.000000,33.000000 -167.000000,33.000000 -149.000000L33.000000 -13.000000C33.000000 5.000000,33.000000 10.000000,43.000000 10.000000C48.000000 10.000000,49.000000 9.000000,66.000000 -12.000000C71.000000 -19.000000,71.000000 -21.000000,86.000000 -37.000000C124.000000 10.000000,178.000000 10.000000,195.000000 10.000000C300.000000 10.000000,352.000000 -48.000000,352.000000 -127.000000C352.000000 -181.000000,319.000000 -213.000000,310.000000 -222.000000C274.000000 -253.000000,247.000000 -259.000000,181.000000 -271.000000C151.000000 -277.000000,78.000000 -291.000000,78.000000 -351.000000C78.000000 -382.000000,99.000000 -428.000000,189.000000 -428.000000C298.000000 -428.000000,304.000000 -335.000000,306.000000 -304.000000C307.000000 -296.000000,314.000000 -296.000000,317.000000 -296.000000C328.000000 -296.000000,328.000000 -301.000000,328.000000 -319.000000"></path>
    </g>
    <g transform="scale(0.011955,0.011955)" id="GLYPHcmr12_116">
      <path style="fill-rule: evenodd;" d="M168.000000 -402.000000L309.000000 -402.000000L309.000000 -431.000000L168.000000 -431.000000L168.000000 -615.000000L146.000000 -615.000000C145.000000 -521.000000,109.000000 -425.000000,18.000000 -422.000000L18.000000 -402.000000L103.000000 -402.000000L103.000000 -124.000000C103.000000 -13.000000,177.000000 10.000000,230.000000 10.000000C293.000000 10.000000,326.000000 -52.000000,326.000000 -124.000000L326.000000 -181.000000L304.000000 -181.000000L304.000000 -126.000000C304.000000 -54.000000,275.000000 -12.000000,236.000000 -12.000000C168.000000 -12.000000,168.000000 -105.000000,168.000000 -122.000000"></path>
    </g>
    <g transform="scale(0.011955,0.011955)" id="GLYPHcmr12_117">
      <path style="fill-rule: evenodd;" d="M304.000000 -430.000000L304.000000 -401.000000C372.000000 -401.000000,380.000000 -394.000000,380.000000 -345.000000L380.000000 -166.000000C380.000000 -81.000000,335.000000 -10.000000,260.000000 -10.000000C178.000000 -10.000000,173.000000 -57.000000,173.000000 -110.000000L173.000000 -441.000000L32.000000 -430.000000L32.000000 -401.000000C108.000000 -401.000000,108.000000 -398.000000,108.000000 -309.000000L108.000000 -159.000000C108.000000 -97.000000,108.000000 -61.000000,138.000000 -28.000000C162.000000 -2.000000,203.000000 10.000000,254.000000 10.000000C271.000000 10.000000,303.000000 10.000000,337.000000 -19.000000C366.000000 -42.000000,382.000000 -80.000000,382.000000 -80.000000L382.000000 10.000000L521.000000 -0.000000L521.000000 -29.000000C453.000000 -29.000000,445.000000 -36.000000,445.000000 -85.000000L445.000000 -441.000000"></path>
    </g>
    <g transform="scale(0.011955,0.011955)" id="GLYPHcmr12_121">
      <path style="fill-rule: evenodd;" d="M405.000000 -334.000000C432.000000 -401.000000,479.000000 -402.000000,498.000000 -402.000000L498.000000 -431.000000C469.000000 -429.000000,455.000000 -429.000000,423.000000 -429.000000C400.000000 -429.000000,398.000000 -429.000000,342.000000 -431.000000L342.000000 -402.000000C379.000000 -400.000000,388.000000 -377.000000,388.000000 -359.000000C388.000000 -350.000000,386.000000 -345.000000,382.000000 -335.000000L280.000000 -83.000000L169.000000 -355.000000C163.000000 -369.000000,163.000000 -375.000000,163.000000 -376.000000C163.000000 -402.000000,198.000000 -402.000000,218.000000 -402.000000L218.000000 -431.000000C192.000000 -429.000000,143.000000 -429.000000,115.000000 -429.000000C77.000000 -429.000000,75.000000 -429.000000,18.000000 -431.000000L18.000000 -402.000000C76.000000 -402.000000,84.000000 -397.000000,97.000000 -366.000000L246.000000 -0.000000C202.000000 106.000000,202.000000 108.000000,198.000000 116.000000C181.000000 146.000000,154.000000 184.000000,109.000000 184.000000C78.000000 184.000000,59.000000 166.000000,59.000000 166.000000C59.000000 166.000000,94.000000 162.000000,94.000000 127.000000C94.000000 103.000000,75.000000 90.000000,57.000000 90.000000C40.000000 90.000000,19.000000 100.000000,19.000000 129.000000C19.000000 167.000000,56.000000 204.000000,109.000000 204.000000C165.000000 204.000000,206.000000 155.000000,232.000000 92.000000"></path>
    </g>
    <g transform="scale(0.008966,0.008966)" id="GLYPHcmr9_48">
      <path style="fill-rule: evenodd;" d="M473.000000 -320.000000C473.000000 -387.000000,470.000000 -473.000000,435.000000 -548.000000C391.000000 -642.000000,315.000000 -666.000000,257.000000 -666.000000C197.000000 -666.000000,121.000000 -642.000000,77.000000 -546.000000C45.000000 -477.000000,40.000000 -396.000000,40.000000 -320.000000C40.000000 -255.000000,42.000000 -158.000000,85.000000 -79.000000C132.000000 6.000000,210.000000 22.000000,256.000000 22.000000C321.000000 22.000000,395.000000 -6.000000,437.000000 -98.000000C467.000000 -165.000000,473.000000 -240.000000,473.000000 -320.000000M257.000000 -3.000000C227.000000 -3.000000,155.000000 -17.000000,136.000000 -130.000000C126.000000 -189.000000,126.000000 -275.000000,126.000000 -332.000000C126.000000 -400.000000,126.000000 -479.000000,138.000000 -534.000000C158.000000 -623.000000,222.000000 -641.000000,256.000000 -641.000000C294.000000 -641.000000,357.000000 -621.000000,376.000000 -528.000000C387.000000 -473.000000,387.000000 -395.000000,387.000000 -332.000000C387.000000 -270.000000,387.000000 -186.000000,377.000000 -127.000000C356.000000 -13.000000,282.000000 -3.000000,257.000000 -3.000000"></path>
    </g>
    <g transform="scale(0.008966,0.008966)" id="GLYPHcmmi9_67">
      <path style="fill-rule: evenodd;" d="M774.000000 -678.000000C777.000000 -690.000000,777.000000 -692.000000,777.000000 -694.000000C777.000000 -695.000000,776.000000 -705.000000,765.000000 -705.000000C759.000000 -705.000000,756.000000 -702.000000,749.000000 -694.000000L688.000000 -627.000000C684.000000 -622.000000,680.000000 -618.000000,679.000000 -618.000000C678.000000 -618.000000,677.000000 -619.000000,671.000000 -626.000000C656.000000 -646.000000,611.000000 -705.000000,507.000000 -705.000000C278.000000 -705.000000,51.000000 -483.000000,51.000000 -255.000000C51.000000 -92.000000,170.000000 22.000000,331.000000 22.000000C435.000000 22.000000,517.000000 -32.000000,556.000000 -67.000000C647.000000 -148.000000,664.000000 -236.000000,664.000000 -240.000000C664.000000 -244.000000,662.000000 -251.000000,650.000000 -251.000000C639.000000 -251.000000,637.000000 -245.000000,636.000000 -241.000000C587.000000 -80.000000,444.000000 -9.000000,344.000000 -9.000000C247.000000 -9.000000,144.000000 -68.000000,144.000000 -219.000000C144.000000 -264.000000,159.000000 -422.000000,260.000000 -545.000000C320.000000 -617.000000,418.000000 -674.000000,514.000000 -674.000000C625.000000 -674.000000,684.000000 -589.000000,684.000000 -479.000000C684.000000 -445.000000,681.000000 -438.000000,681.000000 -430.000000C681.000000 -419.000000,693.000000 -419.000000,696.000000 -419.000000C709.000000 -419.000000,709.000000 -421.000000,714.000000 -440.000000"></path>
    </g>
    <g transform="scale(0.008966,0.008966)" id="GLYPHcmmi9_68">
      <path style="fill-rule: evenodd;" d="M161.000000 -76.000000C152.000000 -40.000000,150.000000 -31.000000,75.000000 -31.000000C56.000000 -31.000000,45.000000 -31.000000,45.000000 -13.000000C45.000000 -0.000000,55.000000 -0.000000,73.000000 -0.000000L410.000000 -0.000000C624.000000 -0.000000,823.000000 -212.000000,823.000000 -428.000000C823.000000 -565.000000,737.000000 -683.000000,581.000000 -683.000000L238.000000 -683.000000C220.000000 -683.000000,208.000000 -683.000000,208.000000 -665.000000C208.000000 -652.000000,217.000000 -652.000000,238.000000 -652.000000C242.000000 -652.000000,260.000000 -652.000000,276.000000 -650.000000C293.000000 -648.000000,300.000000 -646.000000,300.000000 -635.000000C300.000000 -630.000000,299.000000 -626.000000,296.000000 -615.000000M381.000000 -613.000000C390.000000 -649.000000,392.000000 -652.000000,434.000000 -652.000000L547.000000 -652.000000C651.000000 -652.000000,734.000000 -594.000000,734.000000 -465.000000C734.000000 -407.000000,709.000000 -247.000000,631.000000 -148.000000C585.000000 -91.000000,502.000000 -31.000000,392.000000 -31.000000L272.000000 -31.000000C258.000000 -31.000000,256.000000 -31.000000,252.000000 -32.000000C242.000000 -33.000000,239.000000 -34.000000,239.000000 -41.000000C239.000000 -44.000000,239.000000 -46.000000,244.000000 -64.000000"></path>
    </g>
    <g transform="scale(0.008966,0.008966)" id="GLYPHcmmi9_84">
      <path style="fill-rule: evenodd;" d="M439.000000 -609.000000C445.000000 -631.000000,447.000000 -641.000000,464.000000 -644.000000C472.000000 -646.000000,504.000000 -646.000000,525.000000 -646.000000C640.000000 -646.000000,674.000000 -639.000000,674.000000 -561.000000C674.000000 -548.000000,674.000000 -533.000000,665.000000 -474.000000L664.000000 -466.000000C664.000000 -459.000000,668.000000 -452.000000,678.000000 -452.000000C690.000000 -452.000000,692.000000 -461.000000,694.000000 -476.000000L720.000000 -649.000000C721.000000 -654.000000,722.000000 -660.000000,722.000000 -663.000000C722.000000 -677.000000,712.000000 -677.000000,693.000000 -677.000000L124.000000 -677.000000C100.000000 -677.000000,99.000000 -676.000000,92.000000 -657.000000L30.000000 -481.000000C26.000000 -468.000000,26.000000 -466.000000,26.000000 -465.000000C26.000000 -460.000000,29.000000 -452.000000,39.000000 -452.000000C50.000000 -452.000000,52.000000 -458.000000,58.000000 -476.000000C113.000000 -632.000000,144.000000 -646.000000,289.000000 -646.000000L328.000000 -646.000000C356.000000 -646.000000,356.000000 -643.000000,356.000000 -635.000000C356.000000 -629.000000,354.000000 -622.000000,352.000000 -614.000000L218.000000 -79.000000C209.000000 -43.000000,206.000000 -31.000000,100.000000 -31.000000C68.000000 -31.000000,59.000000 -31.000000,59.000000 -13.000000C59.000000 -0.000000,72.000000 -0.000000,76.000000 -0.000000C102.000000 -0.000000,131.000000 -2.000000,158.000000 -2.000000C186.000000 -2.000000,215.000000 -3.000000,243.000000 -3.000000C287.000000 -3.000000,289.000000 -3.000000,326.000000 -2.000000C339.000000 -2.000000,405.000000 -0.000000,413.000000 -0.000000C422.000000 -0.000000,434.000000 -0.000000,434.000000 -18.000000C434.000000 -31.000000,425.000000 -31.000000,400.000000 -31.000000C375.000000 -31.000000,363.000000 -31.000000,336.000000 -33.000000C313.000000 -36.000000,301.000000 -37.000000,301.000000 -54.000000C301.000000 -59.000000,303.000000 -67.000000,305.000000 -74.000000"></path>
    </g>
    <g transform="scale(0.008966,0.008966)" id="GLYPHcmmi9_97">
      <path style="fill-rule: evenodd;" d="M382.000000 -380.000000C363.000000 -416.000000,332.000000 -442.000000,287.000000 -442.000000C171.000000 -442.000000,42.000000 -304.000000,42.000000 -151.000000C42.000000 -41.000000,112.000000 11.000000,179.000000 11.000000C244.000000 11.000000,297.000000 -43.000000,313.000000 -62.000000C324.000000 -7.000000,374.000000 11.000000,406.000000 11.000000C435.000000 11.000000,460.000000 -2.000000,482.000000 -44.000000C500.000000 -77.000000,514.000000 -139.000000,514.000000 -143.000000C514.000000 -148.000000,511.000000 -155.000000,501.000000 -155.000000C489.000000 -155.000000,488.000000 -150.000000,484.000000 -131.000000C462.000000 -44.000000,440.000000 -14.000000,409.000000 -14.000000C384.000000 -14.000000,378.000000 -38.000000,378.000000 -60.000000C378.000000 -79.000000,383.000000 -99.000000,392.000000 -134.000000L417.000000 -237.000000C424.000000 -262.000000,442.000000 -337.000000,446.000000 -352.000000C450.000000 -366.000000,456.000000 -390.000000,456.000000 -393.000000C456.000000 -409.000000,443.000000 -422.000000,425.000000 -422.000000C412.000000 -422.000000,387.000000 -414.000000,382.000000 -380.000000M317.000000 -122.000000C312.000000 -103.000000,312.000000 -102.000000,296.000000 -83.000000C260.000000 -40.000000,219.000000 -14.000000,182.000000 -14.000000C133.000000 -14.000000,116.000000 -65.000000,116.000000 -108.000000C116.000000 -157.000000,145.000000 -272.000000,169.000000 -320.000000C201.000000 -380.000000,247.000000 -417.000000,287.000000 -417.000000C354.000000 -417.000000,369.000000 -337.000000,369.000000 -330.000000C369.000000 -325.000000,367.000000 -319.000000,366.000000 -315.000000"></path>
    </g>
    <g transform="scale(0.008966,0.008966)" id="GLYPHcmmi9_102">
      <path style="fill-rule: evenodd;" d="M374.000000 -400.000000L464.000000 -400.000000C484.000000 -400.000000,494.000000 -400.000000,494.000000 -418.000000C494.000000 -431.000000,484.000000 -431.000000,465.000000 -431.000000L380.000000 -431.000000C391.000000 -491.000000,405.000000 -573.000000,418.000000 -627.000000C427.000000 -666.000000,451.000000 -680.000000,471.000000 -680.000000C477.000000 -680.000000,500.000000 -678.000000,517.000000 -666.000000C497.000000 -662.000000,468.000000 -644.000000,468.000000 -611.000000C468.000000 -586.000000,487.000000 -575.000000,506.000000 -575.000000C533.000000 -575.000000,561.000000 -597.000000,561.000000 -635.000000C561.000000 -680.000000,517.000000 -705.000000,470.000000 -705.000000C425.000000 -705.000000,380.000000 -673.000000,359.000000 -632.000000C337.000000 -589.000000,330.000000 -550.000000,309.000000 -431.000000L237.000000 -431.000000C218.000000 -431.000000,206.000000 -431.000000,206.000000 -413.000000C206.000000 -400.000000,217.000000 -400.000000,235.000000 -400.000000L303.000000 -400.000000C275.000000 -255.000000,240.000000 -55.000000,218.000000 49.000000C206.000000 104.000000,190.000000 180.000000,142.000000 180.000000C127.000000 180.000000,107.000000 174.000000,97.000000 166.000000C122.000000 162.000000,147.000000 141.000000,147.000000 111.000000C147.000000 86.000000,128.000000 75.000000,109.000000 75.000000C82.000000 75.000000,54.000000 97.000000,54.000000 135.000000C54.000000 181.000000,100.000000 205.000000,142.000000 205.000000C244.000000 205.000000,291.000000 39.000000,307.000000 -47.000000"></path>
    </g>
    <g transform="scale(0.008966,0.008966)" id="GLYPHcmsy9_64">
      <path style="fill-rule: evenodd;" d="M482.000000 -111.000000C527.000000 -61.000000,530.000000 -29.000000,531.000000 -16.000000C532.000000 -10.000000,532.000000 -1.000000,542.000000 -1.000000C550.000000 -1.000000,570.000000 -16.000000,570.000000 -66.000000C570.000000 -94.000000,570.000000 -116.000000,458.000000 -235.000000L498.000000 -491.000000C528.000000 -458.000000,530.000000 -433.000000,531.000000 -424.000000C531.000000 -419.000000,532.000000 -410.000000,542.000000 -410.000000C549.000000 -410.000000,570.000000 -423.000000,570.000000 -476.000000C570.000000 -506.000000,565.000000 -520.000000,527.000000 -556.000000C500.000000 -581.000000,499.000000 -582.000000,481.000000 -610.000000C445.000000 -665.000000,442.000000 -673.000000,438.000000 -683.000000C436.000000 -688.000000,434.000000 -693.000000,427.000000 -693.000000C419.000000 -693.000000,399.000000 -678.000000,399.000000 -628.000000C399.000000 -609.000000,399.000000 -582.000000,463.000000 -524.000000C467.000000 -521.000000,468.000000 -520.000000,468.000000 -515.000000C468.000000 -510.000000,465.000000 -473.000000,448.000000 -381.000000C437.000000 -323.000000,433.000000 -294.000000,430.000000 -267.000000L145.000000 -583.000000C100.000000 -633.000000,97.000000 -665.000000,96.000000 -678.000000C95.000000 -684.000000,95.000000 -693.000000,85.000000 -693.000000C77.000000 -693.000000,57.000000 -678.000000,57.000000 -628.000000C57.000000 -600.000000,57.000000 -578.000000,169.000000 -459.000000C133.000000 -400.000000,86.000000 -322.000000,86.000000 -241.000000C86.000000 -217.000000,90.000000 -194.000000,116.000000 -149.000000C132.000000 -119.000000,149.000000 -89.000000,149.000000 -61.000000C149.000000 -43.000000,139.000000 -26.000000,75.000000 -25.000000C67.000000 -25.000000,57.000000 -25.000000,57.000000 -13.000000C57.000000 -0.000000,65.000000 -0.000000,85.000000 -0.000000L143.000000 -0.000000C163.000000 -0.000000,248.000000 -0.000000,248.000000 -60.000000C248.000000 -98.000000,222.000000 -129.000000,199.000000 -156.000000C158.000000 -205.000000,157.000000 -218.000000,157.000000 -248.000000C157.000000 -297.000000,163.000000 -366.000000,192.000000 -433.000000"></path>
    </g>
    <g transform="scale(0.011955,0.011955)" id="GLYPHcmbx12_76">
      <path style="fill-rule: evenodd;" d="M628.000000 -270.000000L586.000000 -270.000000C579.000000 -201.000000,563.000000 -43.000000,383.000000 -43.000000L276.000000 -43.000000L276.000000 -643.000000L409.000000 -643.000000L409.000000 -686.000000C360.000000 -684.000000,271.000000 -684.000000,218.000000 -684.000000C181.000000 -684.000000,67.000000 -684.000000,38.000000 -686.000000L38.000000 -643.000000L144.000000 -643.000000L144.000000 -43.000000L38.000000 -43.000000L38.000000 -0.000000L599.000000 -0.000000"></path>
    </g>
    <g transform="scale(0.011955,0.011955)" id="GLYPHcmbx12_97">
      <path style="fill-rule: evenodd;" d="M460.000000 -299.000000C460.000000 -391.000000,387.000000 -453.000000,246.000000 -453.000000C190.000000 -453.000000,72.000000 -448.000000,72.000000 -364.000000C72.000000 -322.000000,104.000000 -304.000000,131.000000 -304.000000C161.000000 -304.000000,190.000000 -325.000000,190.000000 -363.000000C190.000000 -382.000000,183.000000 -400.000000,166.000000 -411.000000C199.000000 -420.000000,223.000000 -420.000000,242.000000 -420.000000C310.000000 -420.000000,351.000000 -382.000000,351.000000 -300.000000L351.000000 -260.000000C193.000000 -260.000000,34.000000 -216.000000,34.000000 -105.000000C34.000000 -14.000000,150.000000 6.000000,219.000000 6.000000C296.000000 6.000000,345.000000 -36.000000,365.000000 -80.000000C365.000000 -43.000000,365.000000 -0.000000,466.000000 -0.000000L517.000000 -0.000000C538.000000 -0.000000,546.000000 -0.000000,546.000000 -22.000000C546.000000 -43.000000,537.000000 -43.000000,523.000000 -43.000000C460.000000 -44.000000,460.000000 -60.000000,460.000000 -83.000000M351.000000 -139.000000C351.000000 -45.000000,267.000000 -27.000000,235.000000 -27.000000C186.000000 -27.000000,145.000000 -60.000000,145.000000 -106.000000C145.000000 -197.000000,253.000000 -228.000000,351.000000 -233.000000"></path>
    </g>
    <g transform="scale(0.011955,0.011955)" id="GLYPHcmbx12_101">
      <path style="fill-rule: evenodd;" d="M452.000000 -221.000000C475.000000 -221.000000,481.000000 -221.000000,481.000000 -246.000000C481.000000 -276.000000,474.000000 -351.000000,428.000000 -398.000000C386.000000 -440.000000,330.000000 -453.000000,272.000000 -453.000000C116.000000 -453.000000,31.000000 -351.000000,31.000000 -225.000000C31.000000 -85.000000,134.000000 6.000000,285.000000 6.000000C436.000000 6.000000,481.000000 -100.000000,481.000000 -117.000000C481.000000 -132.000000,466.000000 -132.000000,460.000000 -132.000000C444.000000 -132.000000,443.000000 -129.000000,437.000000 -116.000000C411.000000 -51.000000,345.000000 -30.000000,297.000000 -30.000000C152.000000 -30.000000,151.000000 -165.000000,151.000000 -221.000000M151.000000 -250.000000C153.000000 -291.000000,154.000000 -330.000000,175.000000 -366.000000C194.000000 -398.000000,229.000000 -420.000000,272.000000 -420.000000C379.000000 -420.000000,388.000000 -300.000000,389.000000 -250.000000"></path>
    </g>
    <g transform="scale(0.011955,0.011955)" id="GLYPHcmbx12_103">
      <path style="fill-rule: evenodd;" d="M130.000000 -182.000000C178.000000 -156.000000,234.000000 -156.000000,249.000000 -156.000000C387.000000 -156.000000,442.000000 -233.000000,442.000000 -303.000000C442.000000 -354.000000,413.000000 -390.000000,401.000000 -400.000000C430.000000 -416.000000,454.000000 -420.000000,471.000000 -422.000000C468.000000 -417.000000,465.000000 -413.000000,465.000000 -400.000000C465.000000 -379.000000,479.000000 -360.000000,505.000000 -360.000000C531.000000 -360.000000,545.000000 -379.000000,545.000000 -400.000000C545.000000 -424.000000,527.000000 -456.000000,485.000000 -456.000000C442.000000 -456.000000,401.000000 -435.000000,380.000000 -417.000000C339.000000 -441.000000,300.000000 -450.000000,249.000000 -450.000000C111.000000 -450.000000,56.000000 -373.000000,56.000000 -303.000000C56.000000 -272.000000,66.000000 -231.000000,108.000000 -197.000000C91.000000 -178.000000,73.000000 -143.000000,73.000000 -107.000000C73.000000 -64.000000,96.000000 -27.000000,117.000000 -11.000000C93.000000 -5.000000,31.000000 18.000000,31.000000 75.000000C31.000000 134.000000,96.000000 201.000000,280.000000 201.000000C446.000000 201.000000,530.000000 147.000000,530.000000 72.000000C530.000000 -16.000000,472.000000 -45.000000,447.000000 -57.000000C399.000000 -81.000000,335.000000 -81.000000,247.000000 -81.000000C222.000000 -81.000000,178.000000 -81.000000,173.000000 -82.000000C130.000000 -89.000000,118.000000 -127.000000,118.000000 -146.000000C118.000000 -154.000000,119.000000 -169.000000,130.000000 -182.000000M249.000000 -188.000000C162.000000 -188.000000,162.000000 -257.000000,162.000000 -303.000000C162.000000 -349.000000,162.000000 -418.000000,249.000000 -418.000000C336.000000 -418.000000,336.000000 -349.000000,336.000000 -303.000000C336.000000 -257.000000,336.000000 -188.000000,249.000000 -188.000000M305.000000 11.000000C378.000000 11.000000,448.000000 24.000000,448.000000 76.000000C448.000000 111.000000,413.000000 169.000000,281.000000 169.000000C149.000000 169.000000,113.000000 113.000000,113.000000 75.000000C113.000000 11.000000,176.000000 11.000000,191.000000 11.000000"></path>
    </g>
    <g transform="scale(0.011955,0.011955)" id="GLYPHcmbx12_110">
      <path style="fill-rule: evenodd;" d="M531.000000 -306.000000C531.000000 -401.000000,490.000000 -450.000000,380.000000 -450.000000C308.000000 -450.000000,246.000000 -415.000000,212.000000 -340.000000L211.000000 -340.000000L211.000000 -450.000000L42.000000 -442.000000L42.000000 -399.000000C104.000000 -399.000000,111.000000 -399.000000,111.000000 -360.000000L111.000000 -43.000000L42.000000 -43.000000L42.000000 -0.000000C65.000000 -2.000000,137.000000 -2.000000,165.000000 -2.000000C193.000000 -2.000000,266.000000 -2.000000,289.000000 -0.000000L289.000000 -43.000000L220.000000 -43.000000L220.000000 -256.000000C220.000000 -364.000000,300.000000 -417.000000,364.000000 -417.000000C401.000000 -417.000000,422.000000 -393.000000,422.000000 -317.000000L422.000000 -43.000000L353.000000 -43.000000L353.000000 -0.000000C376.000000 -2.000000,448.000000 -2.000000,476.000000 -2.000000C504.000000 -2.000000,577.000000 -2.000000,600.000000 -0.000000L600.000000 -43.000000L531.000000 -43.000000"></path>
    </g>
    <g transform="scale(0.011955,0.011955)" id="GLYPHcmbx12_117">
      <path style="fill-rule: evenodd;" d="M353.000000 -442.000000L353.000000 -399.000000C415.000000 -399.000000,422.000000 -399.000000,422.000000 -360.000000L422.000000 -164.000000C422.000000 -88.000000,377.000000 -27.000000,299.000000 -27.000000C224.000000 -27.000000,220.000000 -52.000000,220.000000 -107.000000L220.000000 -450.000000L42.000000 -442.000000L42.000000 -399.000000C104.000000 -399.000000,111.000000 -399.000000,111.000000 -360.000000L111.000000 -123.000000C111.000000 -23.000000,178.000000 6.000000,285.000000 6.000000C309.000000 6.000000,383.000000 6.000000,426.000000 -75.000000L427.000000 -75.000000L427.000000 6.000000L600.000000 -0.000000L600.000000 -43.000000C538.000000 -43.000000,531.000000 -43.000000,531.000000 -82.000000L531.000000 -450.000000"></path>
    </g>
  </defs>
  <g transform="matrix(1.199997,-0.000000,-0.000000,1.199997,106.142822 88.456039)" style="fill: rgb(0.000000%,0.000000%,0.000000%);">
    <use xlink:href="#GLYPHcmsy10_76"></use>
  </g>
  <g transform="translate(114.388626 90.249344)" style="fill: rgb(0.000000%,0.000000%,0.000000%);">
    <use xlink:href="#GLYPHcmr9_48"></use>
  </g>
  <g transform="matrix(1.199997,-0.000000,-0.000000,1.199997,120.107986 116.802429)" style="fill: rgb(0.000000%,0.000000%,0.000000%);">
    <use xlink:href="#GLYPHcmsy10_76"></use>
  </g>
  <g transform="translate(128.353790 118.595734)" style="fill: rgb(0.000000%,0.000000%,0.000000%);">
    <use xlink:href="#GLYPHcmmi9_97"></use>
  </g>
  <g transform="matrix(1.199997,-0.000000,-0.000000,1.199997,134.695114 144.119385)" style="fill: rgb(0.000000%,0.000000%,0.000000%);">
    <use xlink:href="#GLYPHcmsy10_76"></use>
  </g>
  <g transform="translate(141.405014 146.228180)" style="fill: rgb(0.000000%,0.000000%,0.000000%);">
    <use xlink:href="#GLYPHcmmi9_102"></use>
  </g>
  <g transform="matrix(1.199997,-0.000000,-0.000000,1.199997,147.937836 173.337479)" style="fill: rgb(0.000000%,0.000000%,0.000000%);">
    <use xlink:href="#GLYPHcmsy10_76"></use>
  </g>
  <g transform="translate(156.183640 175.446274)" style="fill: rgb(0.000000%,0.000000%,0.000000%);">
    <use xlink:href="#GLYPHcmsy9_64"></use>
  </g>
  <g transform="matrix(1.199997,-0.000000,-0.000000,1.199997,160.928421 201.733719)" style="fill: rgb(0.000000%,0.000000%,0.000000%);">
    <use xlink:href="#GLYPHcmsy10_76"></use>
  </g>
  <g transform="translate(169.174225 203.742813)" style="fill: rgb(0.000000%,0.000000%,0.000000%);">
    <use xlink:href="#GLYPHcmmi9_68"></use>
  </g>
  <g transform="matrix(1.199997,-0.000000,-0.000000,1.199997,274.346619 173.387329)" style="fill: rgb(0.000000%,0.000000%,0.000000%);">
    <use xlink:href="#GLYPHcmsy10_76"></use>
  </g>
  <g transform="translate(282.592422 175.396423)" style="fill: rgb(0.000000%,0.000000%,0.000000%);">
    <use xlink:href="#GLYPHcmmi9_84"></use>
  </g>
  <g transform="matrix(1.199997,-0.000000,-0.000000,1.199997,274.066666 60.001755)" style="fill: rgb(0.000000%,0.000000%,0.000000%);">
    <use xlink:href="#GLYPHcmsy10_76"></use>
  </g>
  <g transform="translate(282.312469 62.010849)" style="fill: rgb(0.000000%,0.000000%,0.000000%);">
    <use xlink:href="#GLYPHcmmi9_67"></use>
  </g>
  <path d="M102.856003 85.268036C102.856003 90.770233,107.316422 95.230652,112.818619 95.230652C118.320816 95.230652,122.781235 90.770233,122.781235 85.268036C122.781235 79.765839,118.320816 75.305420,112.818619 75.305420C107.316422 75.305420,102.856003 79.765839,102.856003 85.268036Z" style="stroke:rgb(0.000000%,0.000000%,0.000000%); stroke-width: 0.500000;stroke-linecap: round;stroke-linejoin: round;stroke-miterlimit: 10.000000;fill: none;"></path>
  <path d="M92.893387 85.268036C85.203445 113.839951,113.768738 136.974518,136.883560 123.577042C167.823166 105.644287,149.083374 57.234543,112.818619 65.342804C102.960617 67.546906,95.530670 75.469208,92.893387 85.268036Z" style="stroke:rgb(0.000000%,0.000000%,0.000000%); stroke-width: 0.500000;stroke-linecap: round;stroke-linejoin: round;stroke-miterlimit: 10.000000;fill: none;"></path>
  <path d="M82.930771 85.268036C68.293213 131.380951,112.449265 171.407516,150.985886 151.923447C206.060028 124.078033,174.229233 39.259354,112.818619 55.380188C98.316772 59.187057,87.485016 70.920731,82.930771 85.268036Z" style="stroke:rgb(0.000000%,0.000000%,0.000000%); stroke-width: 0.500000;stroke-linecap: round;stroke-linejoin: round;stroke-miterlimit: 10.000000;fill: none;"></path>
  <path d="M72.968155 85.268036C51.359009 148.959869,111.138062 205.881912,165.088211 180.269836C244.448654 142.594574,199.388000 21.138824,112.818619 45.417572C93.654724 50.792175,79.385910 66.351990,72.968155 85.268036Z" style="stroke:rgb(0.000000%,0.000000%,0.000000%); stroke-width: 0.500000;stroke-linecap: round;stroke-linejoin: round;stroke-miterlimit: 10.000000;fill: none;"></path>
  <path d="M63.005539 85.268036C34.416351 166.551224,109.828796 240.370178,179.190536 208.616226C282.892609 161.141190,224.549423 2.966110,112.818619 35.454956C88.986328 42.384857,71.268402 61.775513,63.005539 85.268036Z" style="stroke:rgb(0.000000%,0.000000%,0.000000%); stroke-width: 0.500000;stroke-linecap: round;stroke-linejoin: round;stroke-miterlimit: 10.000000;fill: none;"></path>
  <path d="M272.083908 56.921646C272.083908 62.423843,276.544327 66.884262,282.046524 66.884262C287.548721 66.884262,292.009140 62.423843,292.009140 56.921646C292.009140 51.419449,287.548721 46.959030,282.046524 46.959030C276.544327 46.959030,272.083908 51.419449,272.083908 56.921646Z" style="stroke:rgb(0.000000%,0.000000%,0.000000%); stroke-width: 0.500000;stroke-linecap: round;stroke-linejoin: round;stroke-miterlimit: 10.000000;fill: none;"></path>
  <g transform="translate(367.021637 67.033722)" style="fill: rgb(0.000000%,0.000000%,0.000000%);">
    <use xlink:href="#GLYPHcmbx12_76"></use>
    <use xlink:href="#GLYPHcmbx12_97" x="8.111237"></use>
    <use xlink:href="#GLYPHcmbx12_110" x="14.673834"></use>
    <use xlink:href="#GLYPHcmbx12_103" x="22.173953"></use>
    <use xlink:href="#GLYPHcmbx12_117" x="28.924051"></use>
    <use xlink:href="#GLYPHcmbx12_97" x="36.424171"></use>
    <use xlink:href="#GLYPHcmbx12_103" x="42.986767"></use>
    <use xlink:href="#GLYPHcmbx12_101" x="49.736865"></use>
  </g>
  <g transform="translate(375.347336 81.695343)" style="fill: rgb(0.000000%,0.000000%,0.000000%);">
    <use xlink:href="#GLYPHcmr12_78"></use>
    <use xlink:href="#GLYPHcmr12_117" x="8.808387"></use>
    <use xlink:href="#GLYPHcmr12_108" x="15.336200"></use>
    <use xlink:href="#GLYPHcmr12_108" x="18.600107"></use>
  </g>
  <g transform="matrix(1.199997,-0.000000,-0.000000,1.199997,401.031342 81.695343)" style="fill: rgb(0.000000%,0.000000%,0.000000%);">
    <use xlink:href="#GLYPHcmsy10_76"></use>
  </g>
  <g transform="translate(409.277039 83.488647)" style="fill: rgb(0.000000%,0.000000%,0.000000%);">
    <use xlink:href="#GLYPHcmr9_48"></use>
  </g>
  <g transform="translate(358.919388 95.709442)" style="fill: rgb(0.000000%,0.000000%,0.000000%);">
    <use xlink:href="#GLYPHcmr12_65"></use>
    <use xlink:href="#GLYPHcmr12_115" x="8.808387"></use>
    <use xlink:href="#GLYPHcmr12_121" x="13.443128"></use>
    <use xlink:href="#GLYPHcmr12_110" x="19.644552"></use>
  </g>
  <g transform="translate(384.668381 95.709442)" style="fill: rgb(0.000000%,0.000000%,0.000000%);">
    <use xlink:href="#GLYPHcmr12_116"></use>
    <use xlink:href="#GLYPHcmr12_97" x="4.569463"></use>
    <use xlink:href="#GLYPHcmr12_99" x="10.444499"></use>
    <use xlink:href="#GLYPHcmr12_116" x="15.666740"></use>
    <use xlink:href="#GLYPHcmr12_105" x="20.236203"></use>
    <use xlink:href="#GLYPHcmr12_99" x="23.500110"></use>
  </g>
  <g transform="matrix(1.199997,-0.000000,-0.000000,1.199997,417.184982 95.709442)" style="fill: rgb(0.000000%,0.000000%,0.000000%);">
    <use xlink:href="#GLYPHcmsy10_76"></use>
  </g>
  <g transform="translate(425.430786 97.502747)" style="fill: rgb(0.000000%,0.000000%,0.000000%);">
    <use xlink:href="#GLYPHcmmi9_97"></use>
  </g>
  <g transform="translate(371.385483 109.291809)" style="fill: rgb(0.000000%,0.000000%,0.000000%);">
    <use xlink:href="#GLYPHcmr12_70"></use>
    <use xlink:href="#GLYPHcmr12_105" x="7.668108"></use>
    <use xlink:href="#GLYPHcmr12_110" x="10.932015"></use>
    <use xlink:href="#GLYPHcmr12_105" x="17.459828"></use>
    <use xlink:href="#GLYPHcmr12_116" x="20.723735"></use>
    <use xlink:href="#GLYPHcmr12_101" x="25.293198"></use>
  </g>
  <g transform="matrix(1.199997,-0.000000,-0.000000,1.199997,405.688477 109.291809)" style="fill: rgb(0.000000%,0.000000%,0.000000%);">
    <use xlink:href="#GLYPHcmsy10_76"></use>
  </g>
  <g transform="translate(412.398285 111.400604)" style="fill: rgb(0.000000%,0.000000%,0.000000%);">
    <use xlink:href="#GLYPHcmmi9_102"></use>
  </g>
  <g transform="translate(364.835495 124.401764)" style="fill: rgb(0.000000%,0.000000%,0.000000%);">
    <use xlink:href="#GLYPHcmr12_70"></use>
    <use xlink:href="#GLYPHcmr12_105" x="7.668108"></use>
    <use xlink:href="#GLYPHcmr12_110" x="10.932015"></use>
    <use xlink:href="#GLYPHcmr12_105" x="17.459828"></use>
    <use xlink:href="#GLYPHcmr12_116" x="20.723735"></use>
    <use xlink:href="#GLYPHcmr12_97" x="25.293198"></use>
    <use xlink:href="#GLYPHcmr12_114" x="31.168233"></use>
    <use xlink:href="#GLYPHcmr12_121" x="35.737697"></use>
  </g>
  <g transform="matrix(1.199997,-0.000000,-0.000000,1.199997,410.519302 124.401764)" style="fill: rgb(0.000000%,0.000000%,0.000000%);">
    <use xlink:href="#GLYPHcmsy10_76"></use>
  </g>
  <g transform="translate(418.764999 126.510559)" style="fill: rgb(0.000000%,0.000000%,0.000000%);">
    <use xlink:href="#GLYPHcmsy9_64"></use>
  </g>
  <g transform="translate(359.659195 138.972092)" style="fill: rgb(0.000000%,0.000000%,0.000000%);">
    <use xlink:href="#GLYPHcmr12_68"></use>
    <use xlink:href="#GLYPHcmr12_101" x="8.973664"></use>
    <use xlink:href="#GLYPHcmr12_99" x="14.195906"></use>
    <use xlink:href="#GLYPHcmr12_105" x="19.418148"></use>
    <use xlink:href="#GLYPHcmr12_100" x="22.682054"></use>
    <use xlink:href="#GLYPHcmr12_97" x="29.209868"></use>
    <use xlink:href="#GLYPHcmr12_98" x="35.084903"></use>
    <use xlink:href="#GLYPHcmr12_108" x="41.612717"></use>
    <use xlink:href="#GLYPHcmr12_101" x="44.876623"></use>
  </g>
  <g transform="matrix(1.199997,-0.000000,-0.000000,1.199997,413.472092 138.972092)" style="fill: rgb(0.000000%,0.000000%,0.000000%);">
    <use xlink:href="#GLYPHcmsy10_76"></use>
  </g>
  <g transform="translate(421.717896 140.981186)" style="fill: rgb(0.000000%,0.000000%,0.000000%);">
    <use xlink:href="#GLYPHcmmi9_68"></use>
  </g>
  <g transform="translate(353.998291 153.160492)" style="fill: rgb(0.000000%,0.000000%,0.000000%);">
    <use xlink:href="#GLYPHcmr12_67"></use>
    <use xlink:href="#GLYPHcmr12_111" x="8.486148"></use>
    <use xlink:href="#GLYPHcmr12_109" x="14.361184"></use>
    <use xlink:href="#GLYPHcmr12_112" x="24.152904"></use>
    <use xlink:href="#GLYPHcmr12_117" x="30.680717"></use>
    <use xlink:href="#GLYPHcmr12_116" x="37.208531"></use>
    <use xlink:href="#GLYPHcmr12_97" x="41.777994"></use>
    <use xlink:href="#GLYPHcmr12_98" x="47.653029"></use>
    <use xlink:href="#GLYPHcmr12_108" x="54.180843"></use>
    <use xlink:href="#GLYPHcmr12_101" x="57.444750"></use>
  </g>
  <g transform="matrix(1.199997,-0.000000,-0.000000,1.199997,420.332184 153.160492)" style="fill: rgb(0.000000%,0.000000%,0.000000%);">
    <use xlink:href="#GLYPHcmsy10_76"></use>
  </g>
  <g transform="translate(428.577988 155.169586)" style="fill: rgb(0.000000%,0.000000%,0.000000%);">
    <use xlink:href="#GLYPHcmmi9_84"></use>
  </g>
  <g transform="translate(360.546844 167.506653)" style="fill: rgb(0.000000%,0.000000%,0.000000%);">
    <use xlink:href="#GLYPHcmr12_67"></use>
    <use xlink:href="#GLYPHcmr12_111" x="8.486148"></use>
    <use xlink:href="#GLYPHcmr12_109" x="14.361184"></use>
    <use xlink:href="#GLYPHcmr12_112" x="24.152904"></use>
    <use xlink:href="#GLYPHcmr12_108" x="30.680717"></use>
    <use xlink:href="#GLYPHcmr12_101" x="33.944624"></use>
    <use xlink:href="#GLYPHcmr12_116" x="39.166866"></use>
    <use xlink:href="#GLYPHcmr12_101" x="43.736329"></use>
  </g>
  <g transform="matrix(1.199997,-0.000000,-0.000000,1.199997,413.223740 167.506653)" style="fill: rgb(0.000000%,0.000000%,0.000000%);">
    <use xlink:href="#GLYPHcmsy10_76"></use>
  </g>
  <g transform="translate(421.469543 169.515747)" style="fill: rgb(0.000000%,0.000000%,0.000000%);">
    <use xlink:href="#GLYPHcmmi9_67"></use>
  </g>
  <path d="M29.887848 227.000000L308.567993 227.000000C316.112640 225.922195,323.104187 222.426422,328.493225 217.037384C333.882263 211.648346,337.378036 204.656799,338.455841 197.112152L338.455841 30.116714C337.378036 22.572067,333.882263 15.580521,328.493225 10.191483C323.104187 4.802444,316.112640 1.306671,308.567993 0.228867L29.887848 0.228867C22.343201 1.306671,15.351654 4.802444,9.962616 10.191483C4.573578 15.580521,1.077805 22.572067,0.000000 30.116714L0.000000 197.112152C1.077805 204.656799,4.573578 211.648346,9.962616 217.037384C15.351654 222.426422,22.343201 225.922195,29.887848 227.000000Z" style="stroke:rgb(0.000000%,0.000000%,0.000000%); stroke-width: 0.996262;stroke-linecap: round;stroke-linejoin: round;stroke-miterlimit: 10.000000;fill: none;"></path>
</svg>
