<?xml version="1.0"?>
<!-- Created by MetaPost 2.02 on 2024.07.21:1040 -->
<svg version="1.1" xmlns="http://www.w3.org/2000/svg" xmlns:xlink="http://www.w3.org/1999/xlink" width="391.773773" height="173.078430" viewBox="0 0 391.773773 173.078430">
<!-- Original BoundingBox: 8.396988 -1.500000 391.773773 171.578430 -->
  <defs>
    <g transform="scale(0.011955,0.011955)" id="GLYPHcmr12_67">
      <path style="fill-rule: evenodd;" d="M652.000000 -681.000000C652.000000 -699.000000,652.000000 -704.000000,642.000000 -704.000000C636.000000 -704.000000,635.000000 -702.000000,629.000000 -692.000000L580.000000 -613.000000C535.000000 -669.000000,467.000000 -704.000000,395.000000 -704.000000C212.000000 -704.000000,54.000000 -546.000000,54.000000 -342.000000C54.000000 -135.000000,214.000000 21.000000,395.000000 21.000000C559.000000 21.000000,652.000000 -122.000000,652.000000 -232.000000C652.000000 -243.000000,652.000000 -249.000000,641.000000 -249.000000C631.000000 -249.000000,630.000000 -244.000000,630.000000 -237.000000C621.000000 -78.000000,505.000000 -8.000000,408.000000 -8.000000C338.000000 -8.000000,147.000000 -50.000000,147.000000 -342.000000C147.000000 -631.000000,335.000000 -675.000000,407.000000 -675.000000C512.000000 -675.000000,604.000000 -586.000000,624.000000 -436.000000C626.000000 -424.000000,626.000000 -421.000000,638.000000 -421.000000C652.000000 -421.000000,652.000000 -424.000000,652.000000 -444.000000"></path>
    </g>
    <g transform="scale(0.011955,0.011955)" id="GLYPHcmr12_68">
      <path style="fill-rule: evenodd;" d="M42.000000 -683.000000L42.000000 -654.000000L62.000000 -654.000000C134.000000 -654.000000,137.000000 -644.000000,137.000000 -607.000000L137.000000 -76.000000C137.000000 -39.000000,134.000000 -29.000000,62.000000 -29.000000L42.000000 -29.000000L42.000000 -0.000000L392.000000 -0.000000C559.000000 -0.000000,693.000000 -150.000000,693.000000 -335.000000C693.000000 -528.000000,558.000000 -683.000000,392.000000 -683.000000M262.000000 -29.000000C218.000000 -29.000000,216.000000 -36.000000,216.000000 -69.000000L216.000000 -614.000000C216.000000 -647.000000,218.000000 -654.000000,262.000000 -654.000000L367.000000 -654.000000C450.000000 -654.000000,516.000000 -614.000000,557.000000 -548.000000C602.000000 -477.000000,602.000000 -376.000000,602.000000 -336.000000C602.000000 -280.000000,601.000000 -186.000000,544.000000 -112.000000C511.000000 -70.000000,451.000000 -29.000000,367.000000 -29.000000"></path>
    </g>
    <g transform="scale(0.011955,0.011955)" id="GLYPHcmr12_69">
      <path style="fill-rule: evenodd;" d="M638.000000 -256.000000L616.000000 -256.000000C592.000000 -100.000000,568.000000 -29.000000,399.000000 -29.000000L263.000000 -29.000000C219.000000 -29.000000,217.000000 -36.000000,217.000000 -69.000000L217.000000 -339.000000L308.000000 -339.000000C404.000000 -339.000000,415.000000 -308.000000,415.000000 -222.000000L437.000000 -222.000000L437.000000 -485.000000L415.000000 -485.000000C415.000000 -399.000000,404.000000 -368.000000,308.000000 -368.000000L217.000000 -368.000000L217.000000 -612.000000C217.000000 -645.000000,219.000000 -652.000000,263.000000 -652.000000L396.000000 -652.000000C543.000000 -652.000000,574.000000 -602.000000,589.000000 -458.000000L611.000000 -458.000000L585.000000 -681.000000L41.000000 -681.000000L41.000000 -652.000000L61.000000 -652.000000C133.000000 -652.000000,136.000000 -642.000000,136.000000 -605.000000L136.000000 -76.000000C136.000000 -39.000000,133.000000 -29.000000,61.000000 -29.000000L41.000000 -29.000000L41.000000 -0.000000L598.000000 -0.000000"></path>
    </g>
    <g transform="scale(0.011955,0.011955)" id="GLYPHcmr12_73">
      <path style="fill-rule: evenodd;" d="M217.000000 -607.000000C217.000000 -644.000000,220.000000 -654.000000,295.000000 -654.000000L317.000000 -654.000000L317.000000 -683.000000C293.000000 -681.000000,207.000000 -681.000000,177.000000 -681.000000C147.000000 -681.000000,60.000000 -681.000000,36.000000 -683.000000L36.000000 -654.000000L58.000000 -654.000000C133.000000 -654.000000,136.000000 -644.000000,136.000000 -607.000000L136.000000 -76.000000C136.000000 -39.000000,133.000000 -29.000000,58.000000 -29.000000L36.000000 -29.000000L36.000000 -0.000000C60.000000 -2.000000,146.000000 -2.000000,176.000000 -2.000000C206.000000 -2.000000,293.000000 -2.000000,317.000000 -0.000000L317.000000 -29.000000L295.000000 -29.000000C220.000000 -29.000000,217.000000 -39.000000,217.000000 -76.000000"></path>
    </g>
    <g transform="scale(0.011955,0.011955)" id="GLYPHcmr12_76">
      <path style="fill-rule: evenodd;" d="M570.000000 -256.000000L548.000000 -256.000000C538.000000 -156.000000,525.000000 -29.000000,350.000000 -29.000000L263.000000 -29.000000C219.000000 -29.000000,217.000000 -36.000000,217.000000 -69.000000L217.000000 -606.000000C217.000000 -642.000000,219.000000 -654.000000,306.000000 -654.000000L336.000000 -654.000000L336.000000 -683.000000C307.000000 -681.000000,219.000000 -681.000000,184.000000 -681.000000C154.000000 -681.000000,65.000000 -681.000000,41.000000 -683.000000L41.000000 -654.000000L61.000000 -654.000000C133.000000 -654.000000,136.000000 -644.000000,136.000000 -607.000000L136.000000 -76.000000C136.000000 -39.000000,133.000000 -29.000000,61.000000 -29.000000L41.000000 -29.000000L41.000000 -0.000000L544.000000 -0.000000"></path>
    </g>
    <g transform="scale(0.011955,0.011955)" id="GLYPHcmr12_78">
      <path style="fill-rule: evenodd;" d="M226.000000 -669.000000C217.000000 -682.000000,216.000000 -683.000000,194.000000 -683.000000L41.000000 -683.000000L41.000000 -654.000000C84.000000 -654.000000,109.000000 -654.000000,136.000000 -647.000000L136.000000 -105.000000C136.000000 -76.000000,136.000000 -29.000000,41.000000 -29.000000L41.000000 -0.000000C67.000000 -2.000000,120.000000 -2.000000,148.000000 -2.000000C176.000000 -2.000000,229.000000 -2.000000,255.000000 -0.000000L255.000000 -29.000000C160.000000 -29.000000,160.000000 -76.000000,160.000000 -105.000000L160.000000 -631.000000C168.000000 -623.000000,168.000000 -621.000000,177.000000 -609.000000L567.000000 -15.000000C577.000000 -1.000000,578.000000 -0.000000,585.000000 -0.000000C594.000000 -0.000000,596.000000 -4.000000,597.000000 -6.000000L597.000000 -578.000000C597.000000 -607.000000,597.000000 -654.000000,692.000000 -654.000000L692.000000 -683.000000C666.000000 -681.000000,613.000000 -681.000000,585.000000 -681.000000C557.000000 -681.000000,504.000000 -681.000000,478.000000 -683.000000L478.000000 -654.000000C573.000000 -654.000000,573.000000 -607.000000,573.000000 -578.000000L573.000000 -141.000000"></path>
    </g>
    <g transform="scale(0.011955,0.011955)" id="GLYPHcmr12_79">
      <path style="fill-rule: evenodd;" d="M707.000000 -339.000000C707.000000 -546.000000,555.000000 -704.000000,381.000000 -704.000000C203.000000 -704.000000,54.000000 -544.000000,54.000000 -339.000000C54.000000 -136.000000,205.000000 21.000000,380.000000 21.000000C559.000000 21.000000,707.000000 -138.000000,707.000000 -339.000000M381.000000 -2.000000C279.000000 -2.000000,147.000000 -98.000000,147.000000 -354.000000C147.000000 -599.000000,286.000000 -682.000000,380.000000 -682.000000C479.000000 -682.000000,614.000000 -596.000000,614.000000 -354.000000C614.000000 -94.000000,478.000000 -2.000000,381.000000 -2.000000"></path>
    </g>
    <g transform="scale(0.011955,0.011955)" id="GLYPHcmr12_80">
      <path style="fill-rule: evenodd;" d="M218.000000 -318.000000L387.000000 -318.000000C504.000000 -318.000000,611.000000 -397.000000,611.000000 -498.000000C611.000000 -595.000000,514.000000 -683.000000,379.000000 -683.000000L42.000000 -683.000000L42.000000 -654.000000L62.000000 -654.000000C134.000000 -654.000000,137.000000 -644.000000,137.000000 -607.000000L137.000000 -76.000000C137.000000 -39.000000,134.000000 -29.000000,62.000000 -29.000000L42.000000 -29.000000L42.000000 -0.000000C66.000000 -2.000000,148.000000 -2.000000,177.000000 -2.000000C207.000000 -2.000000,289.000000 -2.000000,313.000000 -0.000000L313.000000 -29.000000L293.000000 -29.000000C221.000000 -29.000000,218.000000 -39.000000,218.000000 -76.000000M216.000000 -342.000000L216.000000 -614.000000C216.000000 -647.000000,218.000000 -654.000000,262.000000 -654.000000L356.000000 -654.000000C518.000000 -654.000000,518.000000 -541.000000,518.000000 -498.000000C518.000000 -456.000000,518.000000 -342.000000,355.000000 -342.000000"></path>
    </g>
    <g transform="scale(0.011955,0.011955)" id="GLYPHcmr12_82">
      <path style="fill-rule: evenodd;" d="M422.000000 -340.000000C521.000000 -363.000000,598.000000 -426.000000,598.000000 -503.000000C598.000000 -600.000000,485.000000 -683.000000,341.000000 -683.000000L42.000000 -683.000000L42.000000 -654.000000L62.000000 -654.000000C134.000000 -654.000000,137.000000 -644.000000,137.000000 -607.000000L137.000000 -76.000000C137.000000 -39.000000,134.000000 -29.000000,62.000000 -29.000000L42.000000 -29.000000L42.000000 -0.000000C65.000000 -2.000000,147.000000 -2.000000,176.000000 -2.000000C205.000000 -2.000000,288.000000 -2.000000,311.000000 -0.000000L311.000000 -29.000000L291.000000 -29.000000C219.000000 -29.000000,216.000000 -39.000000,216.000000 -76.000000L216.000000 -332.000000L332.000000 -332.000000C371.000000 -332.000000,408.000000 -321.000000,435.000000 -293.000000C469.000000 -255.000000,469.000000 -234.000000,469.000000 -165.000000C469.000000 -86.000000,469.000000 -60.000000,513.000000 -17.000000C528.000000 -2.000000,570.000000 21.000000,626.000000 21.000000C704.000000 21.000000,717.000000 -66.000000,717.000000 -87.000000C717.000000 -93.000000,717.000000 -102.000000,706.000000 -102.000000C696.000000 -102.000000,696.000000 -96.000000,695.000000 -86.000000C690.000000 -26.000000,661.000000 1.000000,629.000000 1.000000C583.000000 1.000000,573.000000 -46.000000,565.000000 -99.000000C564.000000 -106.000000,558.000000 -149.000000,555.000000 -174.000000C548.000000 -224.000000,544.000000 -256.000000,514.000000 -287.000000C503.000000 -298.000000,477.000000 -325.000000,422.000000 -340.000000M328.000000 -352.000000L216.000000 -352.000000L216.000000 -614.000000C216.000000 -637.000000,216.000000 -649.000000,237.000000 -653.000000C246.000000 -654.000000,276.000000 -654.000000,296.000000 -654.000000C377.000000 -654.000000,505.000000 -654.000000,505.000000 -503.000000C505.000000 -416.000000,458.000000 -352.000000,328.000000 -352.000000"></path>
    </g>
    <g transform="scale(0.011955,0.011955)" id="GLYPHcmr12_83">
      <path style="fill-rule: evenodd;" d="M208.000000 -417.000000C157.000000 -430.000000,112.000000 -480.000000,112.000000 -544.000000C112.000000 -614.000000,168.000000 -677.000000,246.000000 -677.000000C410.000000 -677.000000,432.000000 -515.000000,438.000000 -472.000000C440.000000 -460.000000,440.000000 -456.000000,450.000000 -456.000000C461.000000 -456.000000,461.000000 -461.000000,461.000000 -479.000000L461.000000 -681.000000C461.000000 -699.000000,461.000000 -704.000000,451.000000 -704.000000C448.000000 -704.000000,444.000000 -704.000000,437.000000 -691.000000L404.000000 -630.000000C356.000000 -692.000000,290.000000 -704.000000,246.000000 -704.000000C135.000000 -704.000000,54.000000 -615.000000,54.000000 -513.000000C54.000000 -465.000000,71.000000 -421.000000,108.000000 -381.000000C143.000000 -342.000000,178.000000 -333.000000,249.000000 -315.000000C284.000000 -307.000000,339.000000 -293.000000,353.000000 -287.000000C400.000000 -264.000000,431.000000 -210.000000,431.000000 -154.000000C431.000000 -79.000000,378.000000 -8.000000,295.000000 -8.000000C250.000000 -8.000000,188.000000 -19.000000,139.000000 -62.000000C81.000000 -114.000000,77.000000 -186.000000,76.000000 -219.000000C75.000000 -227.000000,67.000000 -227.000000,65.000000 -227.000000C54.000000 -227.000000,54.000000 -222.000000,54.000000 -204.000000L54.000000 -2.000000C54.000000 16.000000,54.000000 21.000000,64.000000 21.000000C70.000000 21.000000,71.000000 19.000000,78.000000 7.000000C82.000000 -1.000000,103.000000 -38.000000,111.000000 -53.000000C147.000000 -13.000000,210.000000 21.000000,296.000000 21.000000C408.000000 21.000000,489.000000 -74.000000,489.000000 -184.000000C489.000000 -245.000000,466.000000 -290.000000,439.000000 -323.000000C402.000000 -368.000000,357.000000 -379.000000,318.000000 -389.000000"></path>
    </g>
    <g transform="scale(0.011955,0.011955)" id="GLYPHcmr12_84">
      <path style="fill-rule: evenodd;" d="M653.000000 -678.000000L53.000000 -678.000000L35.000000 -455.000000L57.000000 -455.000000C71.000000 -613.000000,80.000000 -649.000000,238.000000 -649.000000C256.000000 -649.000000,284.000000 -649.000000,292.000000 -647.000000C312.000000 -644.000000,313.000000 -632.000000,313.000000 -609.000000L313.000000 -77.000000C313.000000 -43.000000,313.000000 -29.000000,215.000000 -29.000000L179.000000 -29.000000L179.000000 -0.000000C211.000000 -2.000000,314.000000 -2.000000,353.000000 -2.000000C392.000000 -2.000000,496.000000 -2.000000,528.000000 -0.000000L528.000000 -29.000000L492.000000 -29.000000C394.000000 -29.000000,394.000000 -43.000000,394.000000 -77.000000L394.000000 -609.000000C394.000000 -634.000000,396.000000 -643.000000,412.000000 -647.000000C420.000000 -649.000000,449.000000 -649.000000,468.000000 -649.000000C626.000000 -649.000000,635.000000 -613.000000,649.000000 -455.000000L671.000000 -455.000000"></path>
    </g>
    <g transform="scale(0.011955,0.011955)" id="GLYPHcmr12_85">
      <path style="fill-rule: evenodd;" d="M570.000000 -230.000000C570.000000 -90.000000,475.000000 -8.000000,381.000000 -8.000000C321.000000 -8.000000,217.000000 -48.000000,217.000000 -223.000000L217.000000 -607.000000C217.000000 -644.000000,220.000000 -654.000000,292.000000 -654.000000L312.000000 -654.000000L312.000000 -683.000000C288.000000 -681.000000,206.000000 -681.000000,177.000000 -681.000000C147.000000 -681.000000,65.000000 -681.000000,41.000000 -683.000000L41.000000 -654.000000L61.000000 -654.000000C133.000000 -654.000000,136.000000 -644.000000,136.000000 -607.000000L136.000000 -229.000000C136.000000 -84.000000,252.000000 21.000000,379.000000 21.000000C518.000000 21.000000,597.000000 -115.000000,597.000000 -215.000000L597.000000 -593.000000C597.000000 -654.000000,674.000000 -654.000000,692.000000 -654.000000L692.000000 -683.000000C666.000000 -681.000000,612.000000 -681.000000,584.000000 -681.000000C555.000000 -681.000000,501.000000 -681.000000,475.000000 -683.000000L475.000000 -654.000000C570.000000 -654.000000,570.000000 -607.000000,570.000000 -580.000000"></path>
    </g>
    <g transform="scale(0.011955,0.011955)" id="GLYPHcmr12_87">
      <path style="fill-rule: evenodd;" d="M893.000000 -585.000000C909.000000 -633.000000,938.000000 -653.000000,988.000000 -654.000000L988.000000 -683.000000C945.000000 -681.000000,943.000000 -681.000000,899.000000 -681.000000C873.000000 -681.000000,819.000000 -681.000000,795.000000 -683.000000L795.000000 -654.000000C856.000000 -653.000000,874.000000 -621.000000,874.000000 -601.000000C874.000000 -596.000000,871.000000 -588.000000,869.000000 -581.000000L717.000000 -107.000000L555.000000 -610.000000C554.000000 -613.000000,552.000000 -621.000000,552.000000 -624.000000C552.000000 -654.000000,605.000000 -654.000000,629.000000 -654.000000L629.000000 -683.000000C605.000000 -681.000000,531.000000 -681.000000,502.000000 -681.000000C473.000000 -681.000000,412.000000 -681.000000,386.000000 -683.000000L386.000000 -654.000000C439.000000 -654.000000,453.000000 -651.000000,464.000000 -633.000000C471.000000 -620.000000,478.000000 -589.000000,491.000000 -553.000000L348.000000 -107.000000L188.000000 -605.000000C183.000000 -619.000000,183.000000 -621.000000,183.000000 -624.000000C183.000000 -654.000000,234.000000 -654.000000,260.000000 -654.000000L260.000000 -683.000000C237.000000 -681.000000,161.000000 -681.000000,133.000000 -681.000000C104.000000 -681.000000,43.000000 -681.000000,17.000000 -683.000000L17.000000 -654.000000C71.000000 -654.000000,90.000000 -654.000000,102.000000 -616.000000L300.000000 2.000000C305.000000 17.000000,309.000000 21.000000,318.000000 21.000000C326.000000 21.000000,331.000000 18.000000,336.000000 3.000000L502.000000 -516.000000L669.000000 3.000000C674.000000 18.000000,679.000000 21.000000,687.000000 21.000000C696.000000 21.000000,700.000000 17.000000,705.000000 2.000000"></path>
    </g>
    <g transform="scale(0.011955,0.011955)" id="GLYPHcmr12_97">
      <path style="fill-rule: evenodd;" d="M386.000000 -267.000000C386.000000 -321.000000,386.000000 -361.000000,342.000000 -400.000000C307.000000 -432.000000,262.000000 -446.000000,218.000000 -446.000000C136.000000 -446.000000,73.000000 -392.000000,73.000000 -327.000000C73.000000 -298.000000,92.000000 -284.000000,115.000000 -284.000000C139.000000 -284.000000,156.000000 -301.000000,156.000000 -325.000000C156.000000 -366.000000,120.000000 -366.000000,105.000000 -366.000000C128.000000 -408.000000,176.000000 -426.000000,216.000000 -426.000000C262.000000 -426.000000,321.000000 -388.000000,321.000000 -298.000000L321.000000 -258.000000C120.000000 -255.000000,44.000000 -171.000000,44.000000 -94.000000C44.000000 -15.000000,136.000000 10.000000,197.000000 10.000000C263.000000 10.000000,308.000000 -30.000000,327.000000 -78.000000C331.000000 -31.000000,362.000000 5.000000,405.000000 5.000000C426.000000 5.000000,484.000000 -9.000000,484.000000 -89.000000L484.000000 -145.000000L462.000000 -145.000000L462.000000 -89.000000C462.000000 -32.000000,438.000000 -24.000000,424.000000 -24.000000C386.000000 -24.000000,386.000000 -77.000000,386.000000 -92.000000M321.000000 -141.000000C321.000000 -43.000000,248.000000 -10.000000,205.000000 -10.000000C156.000000 -10.000000,115.000000 -46.000000,115.000000 -94.000000C115.000000 -226.000000,285.000000 -238.000000,321.000000 -240.000000"></path>
    </g>
    <g transform="scale(0.011955,0.011955)" id="GLYPHcmr12_98">
      <path style="fill-rule: evenodd;" d="M167.000000 -694.000000L28.000000 -683.000000L28.000000 -654.000000C96.000000 -654.000000,104.000000 -647.000000,104.000000 -598.000000L104.000000 -0.000000L126.000000 -0.000000C130.000000 -8.000000,158.000000 -58.000000,162.000000 -65.000000C185.000000 -28.000000,228.000000 10.000000,292.000000 10.000000C407.000000 10.000000,508.000000 -87.000000,508.000000 -216.000000C508.000000 -343.000000,414.000000 -441.000000,303.000000 -441.000000C248.000000 -441.000000,201.000000 -416.000000,167.000000 -374.000000M169.000000 -320.000000C169.000000 -338.000000,169.000000 -340.000000,180.000000 -356.000000C204.000000 -392.000000,248.000000 -421.000000,297.000000 -421.000000C327.000000 -421.000000,432.000000 -409.000000,432.000000 -217.000000C432.000000 -150.000000,422.000000 -108.000000,398.000000 -72.000000C378.000000 -41.000000,338.000000 -10.000000,288.000000 -10.000000C234.000000 -10.000000,199.000000 -45.000000,182.000000 -72.000000C169.000000 -93.000000,169.000000 -97.000000,169.000000 -114.000000"></path>
    </g>
    <g transform="scale(0.011955,0.011955)" id="GLYPHcmr12_99">
      <path style="fill-rule: evenodd;" d="M362.000000 -370.000000C350.000000 -370.000000,313.000000 -370.000000,313.000000 -329.000000C313.000000 -305.000000,330.000000 -288.000000,354.000000 -288.000000C377.000000 -288.000000,396.000000 -302.000000,396.000000 -331.000000C396.000000 -398.000000,326.000000 -446.000000,245.000000 -446.000000C128.000000 -446.000000,35.000000 -342.000000,35.000000 -216.000000C35.000000 -88.000000,131.000000 10.000000,244.000000 10.000000C376.000000 10.000000,406.000000 -110.000000,406.000000 -119.000000C406.000000 -128.000000,399.000000 -128.000000,396.000000 -128.000000C387.000000 -128.000000,386.000000 -125.000000,383.000000 -113.000000C361.000000 -42.000000,307.000000 -12.000000,253.000000 -12.000000C192.000000 -12.000000,111.000000 -65.000000,111.000000 -217.000000C111.000000 -383.000000,196.000000 -424.000000,246.000000 -424.000000C284.000000 -424.000000,339.000000 -409.000000,362.000000 -370.000000"></path>
    </g>
    <g transform="scale(0.011955,0.011955)" id="GLYPHcmr12_100">
      <path style="fill-rule: evenodd;" d="M300.000000 -683.000000L300.000000 -654.000000C368.000000 -654.000000,376.000000 -647.000000,376.000000 -598.000000L376.000000 -377.000000C355.000000 -406.000000,312.000000 -441.000000,251.000000 -441.000000C135.000000 -441.000000,35.000000 -343.000000,35.000000 -215.000000C35.000000 -88.000000,130.000000 10.000000,240.000000 10.000000C316.000000 10.000000,360.000000 -40.000000,374.000000 -59.000000L374.000000 10.000000L515.000000 -0.000000L515.000000 -29.000000C447.000000 -29.000000,439.000000 -36.000000,439.000000 -85.000000L439.000000 -694.000000M374.000000 -117.000000C374.000000 -99.000000,374.000000 -96.000000,360.000000 -74.000000C336.000000 -39.000000,295.000000 -10.000000,245.000000 -10.000000C219.000000 -10.000000,111.000000 -20.000000,111.000000 -214.000000C111.000000 -286.000000,123.000000 -326.000000,145.000000 -359.000000C165.000000 -390.000000,205.000000 -421.000000,255.000000 -421.000000C317.000000 -421.000000,352.000000 -376.000000,362.000000 -360.000000C374.000000 -343.000000,374.000000 -341.000000,374.000000 -323.000000"></path>
    </g>
    <g transform="scale(0.011955,0.011955)" id="GLYPHcmr12_101">
      <path style="fill-rule: evenodd;" d="M383.000000 -232.000000C405.000000 -232.000000,407.000000 -232.000000,407.000000 -251.000000C407.000000 -352.000000,353.000000 -446.000000,232.000000 -446.000000C118.000000 -446.000000,30.000000 -343.000000,30.000000 -219.000000C30.000000 -87.000000,132.000000 10.000000,243.000000 10.000000C362.000000 10.000000,407.000000 -98.000000,407.000000 -119.000000C407.000000 -125.000000,402.000000 -129.000000,396.000000 -129.000000C388.000000 -129.000000,386.000000 -124.000000,384.000000 -119.000000C358.000000 -35.000000,291.000000 -12.000000,249.000000 -12.000000C207.000000 -12.000000,106.000000 -40.000000,106.000000 -213.000000L106.000000 -232.000000M107.000000 -251.000000C115.000000 -408.000000,203.000000 -426.000000,231.000000 -426.000000C338.000000 -426.000000,344.000000 -285.000000,345.000000 -251.000000"></path>
    </g>
    <g transform="scale(0.011955,0.011955)" id="GLYPHcmr12_103">
      <path style="fill-rule: evenodd;" d="M119.000000 -181.000000C166.000000 -150.000000,206.000000 -150.000000,217.000000 -150.000000C307.000000 -150.000000,374.000000 -218.000000,374.000000 -295.000000C374.000000 -322.000000,366.000000 -360.000000,334.000000 -392.000000C373.000000 -432.000000,420.000000 -432.000000,425.000000 -432.000000C429.000000 -432.000000,434.000000 -432.000000,438.000000 -430.000000C428.000000 -426.000000,423.000000 -416.000000,423.000000 -405.000000C423.000000 -391.000000,433.000000 -379.000000,449.000000 -379.000000C457.000000 -379.000000,475.000000 -384.000000,475.000000 -406.000000C475.000000 -424.000000,461.000000 -452.000000,426.000000 -452.000000C374.000000 -452.000000,335.000000 -420.000000,321.000000 -405.000000C291.000000 -428.000000,256.000000 -441.000000,218.000000 -441.000000C128.000000 -441.000000,61.000000 -373.000000,61.000000 -296.000000C61.000000 -239.000000,96.000000 -202.000000,106.000000 -193.000000C94.000000 -178.000000,76.000000 -149.000000,76.000000 -110.000000C76.000000 -52.000000,111.000000 -27.000000,119.000000 -22.000000C73.000000 -9.000000,27.000000 27.000000,27.000000 79.000000C27.000000 148.000000,121.000000 205.000000,244.000000 205.000000C363.000000 205.000000,462.000000 152.000000,462.000000 77.000000C462.000000 52.000000,455.000000 -7.000000,395.000000 -38.000000C344.000000 -64.000000,294.000000 -64.000000,208.000000 -64.000000C147.000000 -64.000000,140.000000 -64.000000,122.000000 -83.000000C112.000000 -93.000000,103.000000 -112.000000,103.000000 -133.000000C103.000000 -150.000000,109.000000 -167.000000,119.000000 -181.000000M218.000000 -171.000000C130.000000 -171.000000,130.000000 -272.000000,130.000000 -295.000000C130.000000 -313.000000,130.000000 -354.000000,147.000000 -381.000000C166.000000 -410.000000,196.000000 -420.000000,217.000000 -420.000000C305.000000 -420.000000,305.000000 -319.000000,305.000000 -296.000000C305.000000 -278.000000,305.000000 -237.000000,288.000000 -210.000000C269.000000 -181.000000,239.000000 -171.000000,218.000000 -171.000000M245.000000 184.000000C149.000000 184.000000,76.000000 135.000000,76.000000 78.000000C76.000000 70.000000,78.000000 31.000000,116.000000 5.000000C138.000000 -9.000000,147.000000 -9.000000,217.000000 -9.000000C300.000000 -9.000000,413.000000 -9.000000,413.000000 78.000000C413.000000 137.000000,337.000000 184.000000,245.000000 184.000000"></path>
    </g>
    <g transform="scale(0.011955,0.011955)" id="GLYPHcmr12_104">
      <path style="fill-rule: evenodd;" d="M445.000000 -243.000000C445.000000 -336.000000,445.000000 -364.000000,422.000000 -396.000000C393.000000 -435.000000,346.000000 -441.000000,312.000000 -441.000000C226.000000 -441.000000,186.000000 -376.000000,172.000000 -345.000000L171.000000 -345.000000L171.000000 -694.000000L32.000000 -683.000000L32.000000 -654.000000C100.000000 -654.000000,108.000000 -647.000000,108.000000 -598.000000L108.000000 -74.000000C108.000000 -29.000000,97.000000 -29.000000,32.000000 -29.000000L32.000000 -0.000000C58.000000 -2.000000,112.000000 -2.000000,140.000000 -2.000000C169.000000 -2.000000,223.000000 -2.000000,249.000000 -0.000000L249.000000 -29.000000C185.000000 -29.000000,173.000000 -29.000000,173.000000 -74.000000L173.000000 -260.000000C173.000000 -365.000000,242.000000 -421.000000,304.000000 -421.000000C366.000000 -421.000000,380.000000 -370.000000,380.000000 -309.000000L380.000000 -74.000000C380.000000 -29.000000,369.000000 -29.000000,304.000000 -29.000000L304.000000 -0.000000C330.000000 -2.000000,384.000000 -2.000000,412.000000 -2.000000C441.000000 -2.000000,495.000000 -2.000000,521.000000 -0.000000L521.000000 -29.000000C471.000000 -29.000000,446.000000 -29.000000,445.000000 -59.000000"></path>
    </g>
    <g transform="scale(0.011955,0.011955)" id="GLYPHcmr12_105">
      <path style="fill-rule: evenodd;" d="M174.000000 -616.000000C174.000000 -642.000000,153.000000 -665.000000,125.000000 -665.000000C99.000000 -665.000000,77.000000 -644.000000,77.000000 -617.000000C77.000000 -587.000000,101.000000 -568.000000,125.000000 -568.000000C156.000000 -568.000000,174.000000 -594.000000,174.000000 -616.000000M36.000000 -430.000000L36.000000 -401.000000C100.000000 -401.000000,109.000000 -395.000000,109.000000 -346.000000L109.000000 -74.000000C109.000000 -29.000000,98.000000 -29.000000,33.000000 -29.000000L33.000000 -0.000000C61.000000 -2.000000,109.000000 -2.000000,138.000000 -2.000000C149.000000 -2.000000,207.000000 -2.000000,241.000000 -0.000000L241.000000 -29.000000C176.000000 -29.000000,172.000000 -34.000000,172.000000 -73.000000L172.000000 -441.000000"></path>
    </g>
    <g transform="scale(0.011955,0.011955)" id="GLYPHcmr12_106">
      <path style="fill-rule: evenodd;" d="M203.000000 -616.000000C203.000000 -646.000000,179.000000 -665.000000,155.000000 -665.000000C127.000000 -665.000000,106.000000 -643.000000,106.000000 -616.000000C106.000000 -590.000000,128.000000 -568.000000,154.000000 -568.000000C184.000000 -568.000000,203.000000 -592.000000,203.000000 -616.000000M56.000000 -430.000000L56.000000 -401.000000C131.000000 -401.000000,140.000000 -394.000000,140.000000 -345.000000L140.000000 55.000000C140.000000 110.000000,129.000000 184.000000,71.000000 184.000000C69.000000 184.000000,38.000000 184.000000,15.000000 170.000000C41.000000 165.000000,49.000000 146.000000,49.000000 129.000000C49.000000 106.000000,32.000000 88.000000,8.000000 88.000000C-17.000000 88.000000,-34.000000 106.000000,-34.000000 130.000000C-34.000000 178.000000,20.000000 204.000000,72.000000 204.000000C144.000000 204.000000,203.000000 142.000000,203.000000 51.000000L203.000000 -441.000000"></path>
    </g>
    <g transform="scale(0.011955,0.011955)" id="GLYPHcmr12_108">
      <path style="fill-rule: evenodd;" d="M172.000000 -694.000000L33.000000 -683.000000L33.000000 -654.000000C101.000000 -654.000000,109.000000 -647.000000,109.000000 -598.000000L109.000000 -74.000000C109.000000 -29.000000,98.000000 -29.000000,33.000000 -29.000000L33.000000 -0.000000C61.000000 -2.000000,110.000000 -2.000000,140.000000 -2.000000C170.000000 -2.000000,220.000000 -2.000000,248.000000 -0.000000L248.000000 -29.000000C184.000000 -29.000000,172.000000 -29.000000,172.000000 -74.000000"></path>
    </g>
    <g transform="scale(0.011955,0.011955)" id="GLYPHcmr12_109">
      <path style="fill-rule: evenodd;" d="M717.000000 -243.000000C717.000000 -336.000000,717.000000 -364.000000,694.000000 -396.000000C665.000000 -435.000000,618.000000 -441.000000,584.000000 -441.000000C501.000000 -441.000000,459.000000 -381.000000,443.000000 -342.000000C429.000000 -419.000000,375.000000 -441.000000,312.000000 -441.000000C215.000000 -441.000000,177.000000 -358.000000,169.000000 -338.000000L168.000000 -338.000000L168.000000 -441.000000L32.000000 -430.000000L32.000000 -401.000000C100.000000 -401.000000,108.000000 -394.000000,108.000000 -345.000000L108.000000 -74.000000C108.000000 -29.000000,97.000000 -29.000000,32.000000 -29.000000L32.000000 -0.000000C58.000000 -2.000000,112.000000 -2.000000,140.000000 -2.000000C169.000000 -2.000000,223.000000 -2.000000,249.000000 -0.000000L249.000000 -29.000000C185.000000 -29.000000,173.000000 -29.000000,173.000000 -74.000000L173.000000 -260.000000C173.000000 -365.000000,242.000000 -421.000000,304.000000 -421.000000C366.000000 -421.000000,380.000000 -370.000000,380.000000 -309.000000L380.000000 -74.000000C380.000000 -29.000000,369.000000 -29.000000,304.000000 -29.000000L304.000000 -0.000000C330.000000 -2.000000,384.000000 -2.000000,412.000000 -2.000000C441.000000 -2.000000,495.000000 -2.000000,521.000000 -0.000000L521.000000 -29.000000C457.000000 -29.000000,445.000000 -29.000000,445.000000 -74.000000L445.000000 -260.000000C445.000000 -365.000000,514.000000 -421.000000,576.000000 -421.000000C638.000000 -421.000000,652.000000 -370.000000,652.000000 -309.000000L652.000000 -74.000000C652.000000 -29.000000,641.000000 -29.000000,576.000000 -29.000000L576.000000 -0.000000C602.000000 -2.000000,656.000000 -2.000000,684.000000 -2.000000C713.000000 -2.000000,767.000000 -2.000000,793.000000 -0.000000L793.000000 -29.000000C743.000000 -29.000000,718.000000 -29.000000,717.000000 -59.000000"></path>
    </g>
    <g transform="scale(0.011955,0.011955)" id="GLYPHcmr12_110">
      <path style="fill-rule: evenodd;" d="M445.000000 -243.000000C445.000000 -336.000000,445.000000 -364.000000,422.000000 -396.000000C393.000000 -435.000000,346.000000 -441.000000,312.000000 -441.000000C215.000000 -441.000000,177.000000 -358.000000,169.000000 -338.000000L168.000000 -338.000000L168.000000 -441.000000L32.000000 -430.000000L32.000000 -401.000000C100.000000 -401.000000,108.000000 -394.000000,108.000000 -345.000000L108.000000 -74.000000C108.000000 -29.000000,97.000000 -29.000000,32.000000 -29.000000L32.000000 -0.000000C58.000000 -2.000000,112.000000 -2.000000,140.000000 -2.000000C169.000000 -2.000000,223.000000 -2.000000,249.000000 -0.000000L249.000000 -29.000000C185.000000 -29.000000,173.000000 -29.000000,173.000000 -74.000000L173.000000 -260.000000C173.000000 -365.000000,242.000000 -421.000000,304.000000 -421.000000C366.000000 -421.000000,380.000000 -370.000000,380.000000 -309.000000L380.000000 -74.000000C380.000000 -29.000000,369.000000 -29.000000,304.000000 -29.000000L304.000000 -0.000000C330.000000 -2.000000,384.000000 -2.000000,412.000000 -2.000000C441.000000 -2.000000,495.000000 -2.000000,521.000000 -0.000000L521.000000 -29.000000C471.000000 -29.000000,446.000000 -29.000000,445.000000 -59.000000"></path>
    </g>
    <g transform="scale(0.011955,0.011955)" id="GLYPHcmr12_111">
      <path style="fill-rule: evenodd;" d="M459.000000 -214.000000C459.000000 -343.000000,361.000000 -446.000000,245.000000 -446.000000C125.000000 -446.000000,30.000000 -340.000000,30.000000 -214.000000C30.000000 -86.000000,130.000000 10.000000,244.000000 10.000000C362.000000 10.000000,459.000000 -88.000000,459.000000 -214.000000M245.000000 -12.000000C208.000000 -12.000000,163.000000 -28.000000,134.000000 -77.000000C107.000000 -122.000000,106.000000 -181.000000,106.000000 -223.000000C106.000000 -261.000000,106.000000 -322.000000,137.000000 -367.000000C165.000000 -410.000000,209.000000 -426.000000,244.000000 -426.000000C283.000000 -426.000000,325.000000 -408.000000,352.000000 -369.000000C383.000000 -323.000000,383.000000 -260.000000,383.000000 -223.000000C383.000000 -188.000000,383.000000 -126.000000,357.000000 -79.000000C329.000000 -31.000000,283.000000 -12.000000,245.000000 -12.000000"></path>
    </g>
    <g transform="scale(0.011955,0.011955)" id="GLYPHcmr12_112">
      <path style="fill-rule: evenodd;" d="M245.000000 165.000000C181.000000 165.000000,169.000000 165.000000,169.000000 120.000000L169.000000 -54.000000C187.000000 -29.000000,228.000000 10.000000,292.000000 10.000000C407.000000 10.000000,508.000000 -87.000000,508.000000 -216.000000C508.000000 -343.000000,414.000000 -441.000000,305.000000 -441.000000C217.000000 -441.000000,170.000000 -378.000000,167.000000 -374.000000L167.000000 -441.000000L28.000000 -430.000000L28.000000 -401.000000C98.000000 -401.000000,104.000000 -394.000000,104.000000 -350.000000L104.000000 120.000000C104.000000 165.000000,93.000000 165.000000,28.000000 165.000000L28.000000 194.000000C54.000000 192.000000,108.000000 192.000000,136.000000 192.000000C165.000000 192.000000,219.000000 192.000000,245.000000 194.000000M169.000000 -319.000000C169.000000 -338.000000,169.000000 -339.000000,180.000000 -355.000000C210.000000 -400.000000,259.000000 -419.000000,297.000000 -419.000000C372.000000 -419.000000,432.000000 -328.000000,432.000000 -216.000000C432.000000 -97.000000,364.000000 -10.000000,287.000000 -10.000000C256.000000 -10.000000,227.000000 -23.000000,207.000000 -42.000000C184.000000 -65.000000,169.000000 -85.000000,169.000000 -113.000000"></path>
    </g>
    <g transform="scale(0.011955,0.011955)" id="GLYPHcmr12_114">
      <path style="fill-rule: evenodd;" d="M167.000000 -233.000000C167.000000 -330.000000,207.000000 -421.000000,284.000000 -421.000000C292.000000 -421.000000,294.000000 -421.000000,298.000000 -420.000000C290.000000 -416.000000,274.000000 -410.000000,274.000000 -383.000000C274.000000 -354.000000,297.000000 -343.000000,313.000000 -343.000000C333.000000 -343.000000,353.000000 -356.000000,353.000000 -383.000000C353.000000 -413.000000,326.000000 -441.000000,283.000000 -441.000000C198.000000 -441.000000,169.000000 -349.000000,163.000000 -330.000000L162.000000 -330.000000L162.000000 -441.000000L28.000000 -430.000000L28.000000 -401.000000C96.000000 -401.000000,104.000000 -394.000000,104.000000 -345.000000L104.000000 -74.000000C104.000000 -29.000000,93.000000 -29.000000,28.000000 -29.000000L28.000000 -0.000000C56.000000 -2.000000,111.000000 -2.000000,141.000000 -2.000000C168.000000 -2.000000,239.000000 -2.000000,262.000000 -0.000000L262.000000 -29.000000L242.000000 -29.000000C169.000000 -29.000000,167.000000 -40.000000,167.000000 -76.000000"></path>
    </g>
    <g transform="scale(0.011955,0.011955)" id="GLYPHcmr12_115">
      <path style="fill-rule: evenodd;" d="M328.000000 -423.000000C328.000000 -441.000000,328.000000 -446.000000,318.000000 -446.000000C310.000000 -446.000000,291.000000 -424.000000,284.000000 -415.000000C253.000000 -440.000000,222.000000 -446.000000,190.000000 -446.000000C69.000000 -446.000000,33.000000 -380.000000,33.000000 -325.000000C33.000000 -314.000000,33.000000 -279.000000,71.000000 -244.000000C103.000000 -216.000000,137.000000 -209.000000,183.000000 -200.000000C238.000000 -189.000000,251.000000 -186.000000,276.000000 -166.000000C294.000000 -151.000000,307.000000 -129.000000,307.000000 -101.000000C307.000000 -58.000000,282.000000 -10.000000,194.000000 -10.000000C128.000000 -10.000000,80.000000 -48.000000,58.000000 -148.000000C54.000000 -166.000000,54.000000 -167.000000,53.000000 -168.000000C51.000000 -172.000000,47.000000 -172.000000,44.000000 -172.000000C33.000000 -172.000000,33.000000 -167.000000,33.000000 -149.000000L33.000000 -13.000000C33.000000 5.000000,33.000000 10.000000,43.000000 10.000000C48.000000 10.000000,49.000000 9.000000,66.000000 -12.000000C71.000000 -19.000000,71.000000 -21.000000,86.000000 -37.000000C124.000000 10.000000,178.000000 10.000000,195.000000 10.000000C300.000000 10.000000,352.000000 -48.000000,352.000000 -127.000000C352.000000 -181.000000,319.000000 -213.000000,310.000000 -222.000000C274.000000 -253.000000,247.000000 -259.000000,181.000000 -271.000000C151.000000 -277.000000,78.000000 -291.000000,78.000000 -351.000000C78.000000 -382.000000,99.000000 -428.000000,189.000000 -428.000000C298.000000 -428.000000,304.000000 -335.000000,306.000000 -304.000000C307.000000 -296.000000,314.000000 -296.000000,317.000000 -296.000000C328.000000 -296.000000,328.000000 -301.000000,328.000000 -319.000000"></path>
    </g>
    <g transform="scale(0.011955,0.011955)" id="GLYPHcmr12_116">
      <path style="fill-rule: evenodd;" d="M168.000000 -402.000000L309.000000 -402.000000L309.000000 -431.000000L168.000000 -431.000000L168.000000 -615.000000L146.000000 -615.000000C145.000000 -521.000000,109.000000 -425.000000,18.000000 -422.000000L18.000000 -402.000000L103.000000 -402.000000L103.000000 -124.000000C103.000000 -13.000000,177.000000 10.000000,230.000000 10.000000C293.000000 10.000000,326.000000 -52.000000,326.000000 -124.000000L326.000000 -181.000000L304.000000 -181.000000L304.000000 -126.000000C304.000000 -54.000000,275.000000 -12.000000,236.000000 -12.000000C168.000000 -12.000000,168.000000 -105.000000,168.000000 -122.000000"></path>
    </g>
    <g transform="scale(0.011955,0.011955)" id="GLYPHcmr12_117">
      <path style="fill-rule: evenodd;" d="M304.000000 -430.000000L304.000000 -401.000000C372.000000 -401.000000,380.000000 -394.000000,380.000000 -345.000000L380.000000 -166.000000C380.000000 -81.000000,335.000000 -10.000000,260.000000 -10.000000C178.000000 -10.000000,173.000000 -57.000000,173.000000 -110.000000L173.000000 -441.000000L32.000000 -430.000000L32.000000 -401.000000C108.000000 -401.000000,108.000000 -398.000000,108.000000 -309.000000L108.000000 -159.000000C108.000000 -97.000000,108.000000 -61.000000,138.000000 -28.000000C162.000000 -2.000000,203.000000 10.000000,254.000000 10.000000C271.000000 10.000000,303.000000 10.000000,337.000000 -19.000000C366.000000 -42.000000,382.000000 -80.000000,382.000000 -80.000000L382.000000 10.000000L521.000000 -0.000000L521.000000 -29.000000C453.000000 -29.000000,445.000000 -36.000000,445.000000 -85.000000L445.000000 -441.000000"></path>
    </g>
    <g transform="scale(0.011955,0.011955)" id="GLYPHcmr12_121">
      <path style="fill-rule: evenodd;" d="M405.000000 -334.000000C432.000000 -401.000000,479.000000 -402.000000,498.000000 -402.000000L498.000000 -431.000000C469.000000 -429.000000,455.000000 -429.000000,423.000000 -429.000000C400.000000 -429.000000,398.000000 -429.000000,342.000000 -431.000000L342.000000 -402.000000C379.000000 -400.000000,388.000000 -377.000000,388.000000 -359.000000C388.000000 -350.000000,386.000000 -345.000000,382.000000 -335.000000L280.000000 -83.000000L169.000000 -355.000000C163.000000 -369.000000,163.000000 -375.000000,163.000000 -376.000000C163.000000 -402.000000,198.000000 -402.000000,218.000000 -402.000000L218.000000 -431.000000C192.000000 -429.000000,143.000000 -429.000000,115.000000 -429.000000C77.000000 -429.000000,75.000000 -429.000000,18.000000 -431.000000L18.000000 -402.000000C76.000000 -402.000000,84.000000 -397.000000,97.000000 -366.000000L246.000000 -0.000000C202.000000 106.000000,202.000000 108.000000,198.000000 116.000000C181.000000 146.000000,154.000000 184.000000,109.000000 184.000000C78.000000 184.000000,59.000000 166.000000,59.000000 166.000000C59.000000 166.000000,94.000000 162.000000,94.000000 127.000000C94.000000 103.000000,75.000000 90.000000,57.000000 90.000000C40.000000 90.000000,19.000000 100.000000,19.000000 129.000000C19.000000 167.000000,56.000000 204.000000,109.000000 204.000000C165.000000 204.000000,206.000000 155.000000,232.000000 92.000000"></path>
    </g>
    <g transform="scale(0.011955,0.011955)" id="GLYPHcmbx12_63">
      <path style="fill-rule: evenodd;" d="M270.000000 -269.000000C270.000000 -357.000000,327.000000 -421.000000,402.000000 -466.000000C423.000000 -479.000000,468.000000 -506.000000,468.000000 -570.000000C468.000000 -700.000000,292.000000 -700.000000,256.000000 -700.000000C126.000000 -700.000000,62.000000 -638.000000,62.000000 -571.000000C62.000000 -530.000000,92.000000 -511.000000,121.000000 -511.000000C153.000000 -511.000000,180.000000 -533.000000,180.000000 -570.000000C180.000000 -587.000000,173.000000 -620.000000,131.000000 -628.000000C172.000000 -665.000000,229.000000 -667.000000,251.000000 -667.000000C345.000000 -667.000000,348.000000 -627.000000,348.000000 -577.000000C348.000000 -522.000000,336.000000 -509.000000,318.000000 -492.000000C228.000000 -399.000000,228.000000 -297.000000,228.000000 -259.000000L228.000000 -227.000000C230.000000 -217.000000,241.000000 -217.000000,249.000000 -217.000000C270.000000 -217.000000,270.000000 -222.000000,270.000000 -243.000000M321.000000 -72.000000C321.000000 -112.000000,289.000000 -144.000000,249.000000 -144.000000C209.000000 -144.000000,177.000000 -112.000000,177.000000 -72.000000C177.000000 -32.000000,209.000000 -0.000000,249.000000 -0.000000C289.000000 -0.000000,321.000000 -32.000000,321.000000 -72.000000"></path>
    </g>
    <g transform="scale(0.009963,0.009963)" id="GLYPHcmsy10_41">
      <path style="fill-rule: evenodd;" d="M726.000000 -327.000000C768.000000 -291.000000,819.000000 -265.000000,852.000000 -250.000000C816.000000 -234.000000,767.000000 -208.000000,726.000000 -173.000000L91.000000 -173.000000C74.000000 -173.000000,55.000000 -173.000000,55.000000 -153.000000C55.000000 -133.000000,73.000000 -133.000000,90.000000 -133.000000L681.000000 -133.000000C633.000000 -87.000000,581.000000 1.000000,581.000000 14.000000C581.000000 25.000000,594.000000 25.000000,600.000000 25.000000C608.000000 25.000000,615.000000 25.000000,619.000000 17.000000C640.000000 -21.000000,668.000000 -74.000000,733.000000 -132.000000C802.000000 -193.000000,869.000000 -220.000000,921.000000 -235.000000C938.000000 -241.000000,939.000000 -242.000000,941.000000 -244.000000C943.000000 -245.000000,943.000000 -248.000000,943.000000 -250.000000C943.000000 -252.000000,943.000000 -254.000000,942.000000 -256.000000L939.000000 -258.000000C937.000000 -259.000000,936.000000 -260.000000,917.000000 -266.000000C782.000000 -306.000000,682.000000 -397.000000,626.000000 -504.000000C615.000000 -524.000000,614.000000 -525.000000,600.000000 -525.000000C594.000000 -525.000000,581.000000 -525.000000,581.000000 -514.000000C581.000000 -501.000000,632.000000 -414.000000,681.000000 -367.000000L90.000000 -367.000000C73.000000 -367.000000,55.000000 -367.000000,55.000000 -347.000000C55.000000 -327.000000,74.000000 -327.000000,91.000000 -327.000000"></path>
    </g>
    <g transform="scale(0.009963,0.009963)" id="GLYPHcmsy10_85">
      <path style="fill-rule: evenodd;" d="M493.000000 -296.000000C470.000000 -212.000000,435.000000 -88.000000,435.000000 -11.000000C435.000000 16.000000,452.000000 28.000000,476.000000 28.000000C516.000000 28.000000,591.000000 -15.000000,591.000000 -35.000000C591.000000 -40.000000,586.000000 -42.000000,581.000000 -42.000000C569.000000 -42.000000,551.000000 -33.000000,540.000000 -27.000000C527.000000 -29.000000,520.000000 -39.000000,520.000000 -53.000000C520.000000 -175.000000,634.000000 -525.000000,663.000000 -599.000000C675.000000 -627.000000,688.000000 -668.000000,688.000000 -676.000000C688.000000 -683.000000,682.000000 -683.000000,678.000000 -683.000000C657.000000 -683.000000,612.000000 -656.000000,604.000000 -637.000000C591.000000 -602.000000,589.000000 -597.000000,577.000000 -560.000000C544.000000 -465.000000,445.000000 -300.000000,346.000000 -184.000000C315.000000 -149.000000,217.000000 -33.000000,146.000000 -33.000000C98.000000 -33.000000,68.000000 -74.000000,68.000000 -140.000000C68.000000 -210.000000,107.000000 -300.000000,167.000000 -437.000000C203.000000 -519.000000,233.000000 -590.000000,233.000000 -635.000000C233.000000 -682.000000,201.000000 -683.000000,183.000000 -683.000000C106.000000 -683.000000,10.000000 -621.000000,10.000000 -600.000000C10.000000 -594.000000,17.000000 -594.000000,21.000000 -594.000000C33.000000 -594.000000,51.000000 -602.000000,67.000000 -613.000000C74.000000 -618.000000,90.000000 -628.000000,117.000000 -628.000000C139.000000 -628.000000,148.000000 -614.000000,148.000000 -592.000000C148.000000 -548.000000,112.000000 -466.000000,70.000000 -370.000000C4.000000 -220.000000,-17.000000 -156.000000,-17.000000 -98.000000C-17.000000 -32.000000,9.000000 22.000000,80.000000 22.000000C142.000000 22.000000,233.000000 -19.000000,335.000000 -114.000000C404.000000 -179.000000,449.000000 -239.000000,492.000000 -297.000000"></path>
    </g>
    <g transform="scale(0.011955,0.011955)" id="GLYPHcmmi12_73">
      <path style="fill-rule: evenodd;" d="M368.000000 -609.000000C377.000000 -644.000000,379.000000 -654.000000,452.000000 -654.000000C474.000000 -654.000000,482.000000 -654.000000,482.000000 -673.000000C482.000000 -683.000000,471.000000 -683.000000,468.000000 -683.000000C450.000000 -683.000000,428.000000 -681.000000,410.000000 -681.000000L287.000000 -681.000000C267.000000 -681.000000,244.000000 -683.000000,224.000000 -683.000000C216.000000 -683.000000,205.000000 -683.000000,205.000000 -664.000000C205.000000 -654.000000,213.000000 -654.000000,233.000000 -654.000000C295.000000 -654.000000,295.000000 -646.000000,295.000000 -635.000000C295.000000 -628.000000,293.000000 -622.000000,291.000000 -613.000000L156.000000 -74.000000C147.000000 -39.000000,145.000000 -29.000000,72.000000 -29.000000C50.000000 -29.000000,41.000000 -29.000000,41.000000 -10.000000C41.000000 -0.000000,51.000000 -0.000000,56.000000 -0.000000C74.000000 -0.000000,96.000000 -2.000000,114.000000 -2.000000L237.000000 -2.000000C257.000000 -2.000000,279.000000 -0.000000,299.000000 -0.000000C307.000000 -0.000000,319.000000 -0.000000,319.000000 -18.000000C319.000000 -29.000000,313.000000 -29.000000,291.000000 -29.000000C229.000000 -29.000000,229.000000 -37.000000,229.000000 -49.000000C229.000000 -51.000000,229.000000 -56.000000,233.000000 -72.000000"></path>
    </g>
  </defs>
  <path d="M68.031372 171.000000L68.031372 0.921570" style="stroke:rgb(0.000000%,0.000000%,0.000000%); stroke-width: 3.000000;stroke-linecap: round;stroke-linejoin: round;stroke-miterlimit: 10.000000;fill: none;"></path>
  <g transform="translate(8.396988 22.014114)" style="fill: rgb(0.000000%,0.000000%,0.000000%);">
    <use xlink:href="#GLYPHcmr12_79"></use>
    <use xlink:href="#GLYPHcmr12_85" x="9.138927"></use>
    <use xlink:href="#GLYPHcmr12_84" x="17.947313"></use>
    <use xlink:href="#GLYPHcmr12_83" x="26.433462"></use>
    <use xlink:href="#GLYPHcmr12_73" x="32.961275"></use>
    <use xlink:href="#GLYPHcmr12_68" x="37.200199"></use>
    <use xlink:href="#GLYPHcmr12_69" x="46.173863"></use>
  </g>
  <g transform="translate(73.700653 22.014114)" style="fill: rgb(0.000000%,0.000000%,0.000000%);">
    <use xlink:href="#GLYPHcmr12_73"></use>
    <use xlink:href="#GLYPHcmr12_78" x="4.238923"></use>
    <use xlink:href="#GLYPHcmr12_83" x="13.047310"></use>
    <use xlink:href="#GLYPHcmr12_73" x="19.575124"></use>
    <use xlink:href="#GLYPHcmr12_68" x="23.814047"></use>
    <use xlink:href="#GLYPHcmr12_69" x="32.787712"></use>
  </g>
  <g transform="translate(25.170807 90.111893)" style="fill: rgb(0.000000%,0.000000%,0.000000%);">
    <use xlink:href="#GLYPHcmbx12_63"></use>
  </g>
  <g transform="matrix(1.199997,-0.000000,-0.000000,1.199997,39.376648 88.153793)" style="fill: rgb(0.000000%,0.000000%,0.000000%);">
    <use xlink:href="#GLYPHcmsy10_41"></use>
  </g>
  <g transform="matrix(0.000000,-1.000000,1.000000,0.000000,60.843918 115.631195)" style="fill: rgb(0.000000%,0.000000%,0.000000%);">
    <use xlink:href="#GLYPHcmr12_80"></use>
    <use xlink:href="#GLYPHcmr12_104" x="7.994497"></use>
    <use xlink:href="#GLYPHcmr12_101" x="14.522310"></use>
    <use xlink:href="#GLYPHcmr12_110" x="19.744552"></use>
    <use xlink:href="#GLYPHcmr12_111" x="26.272366"></use>
    <use xlink:href="#GLYPHcmr12_109" x="32.147401"></use>
    <use xlink:href="#GLYPHcmr12_101" x="41.939121"></use>
    <use xlink:href="#GLYPHcmr12_110" x="47.161363"></use>
    <use xlink:href="#GLYPHcmr12_97" x="53.689176"></use>
  </g>
  <g transform="matrix(0.000000,-1.000000,1.000000,0.000000,83.454636 110.380783)" style="fill: rgb(0.000000%,0.000000%,0.000000%);">
    <use xlink:href="#GLYPHcmr12_83"></use>
    <use xlink:href="#GLYPHcmr12_101" x="6.527813"></use>
    <use xlink:href="#GLYPHcmr12_110" x="11.750055"></use>
    <use xlink:href="#GLYPHcmr12_115" x="18.277869"></use>
    <use xlink:href="#GLYPHcmr12_97" x="22.912610"></use>
    <use xlink:href="#GLYPHcmr12_116" x="28.787645"></use>
    <use xlink:href="#GLYPHcmr12_105" x="33.357108"></use>
    <use xlink:href="#GLYPHcmr12_111" x="36.621015"></use>
    <use xlink:href="#GLYPHcmr12_110" x="42.496050"></use>
  </g>
  <g transform="matrix(1.199997,-0.000000,-0.000000,1.199997,90.400177 88.153793)" style="fill: rgb(0.000000%,0.000000%,0.000000%);">
    <use xlink:href="#GLYPHcmsy10_41"></use>
  </g>
  <path d="M107.716339 119.976471L192.755554 119.976471L192.755554 51.945099L107.716339 51.945099Z" style="stroke:rgb(0.000000%,0.000000%,0.000000%); stroke-width: 2.000000;stroke-linecap: round;stroke-linejoin: round;stroke-miterlimit: 10.000000;fill: none;"></path>
  <g transform="translate(123.004288 88.944687)" style="fill: rgb(0.000000%,0.000000%,0.000000%);">
    <use xlink:href="#GLYPHcmr12_80"></use>
  </g>
  <g transform="translate(130.643585 88.944687)" style="fill: rgb(0.000000%,0.000000%,0.000000%);">
    <use xlink:href="#GLYPHcmr12_101"></use>
    <use xlink:href="#GLYPHcmr12_114" x="5.222242"></use>
    <use xlink:href="#GLYPHcmr12_99" x="9.791705"></use>
    <use xlink:href="#GLYPHcmr12_101" x="15.013947"></use>
    <use xlink:href="#GLYPHcmr12_112" x="20.236188"></use>
    <use xlink:href="#GLYPHcmr12_116" x="26.764002"></use>
    <use xlink:href="#GLYPHcmr12_105" x="31.333465"></use>
    <use xlink:href="#GLYPHcmr12_111" x="34.597372"></use>
    <use xlink:href="#GLYPHcmr12_110" x="40.472407"></use>
  </g>
  <g transform="translate(147.184540 105.352570)" style="fill: rgb(0.000000%,0.000000%,0.000000%);">
    <use xlink:href="#GLYPHcmmi12_73"></use>
  </g>
  <g transform="matrix(1.199997,-0.000000,-0.000000,1.199997,198.116516 88.153793)" style="fill: rgb(0.000000%,0.000000%,0.000000%);">
    <use xlink:href="#GLYPHcmsy10_41"></use>
  </g>
  <g transform="matrix(0.000000,-1.000000,1.000000,0.000000,224.090759 103.357193)" style="fill: rgb(0.000000%,0.000000%,0.000000%);">
    <use xlink:href="#GLYPHcmr12_79"></use>
    <use xlink:href="#GLYPHcmr12_98" x="9.138927"></use>
  </g>
  <g transform="matrix(0.000000,-1.000000,1.000000,0.000000,224.090759 87.098892)" style="fill: rgb(0.000000%,0.000000%,0.000000%);">
    <use xlink:href="#GLYPHcmr12_106"></use>
    <use xlink:href="#GLYPHcmr12_101" x="3.590296"></use>
    <use xlink:href="#GLYPHcmr12_99" x="8.812537"></use>
    <use xlink:href="#GLYPHcmr12_116" x="14.034779"></use>
  </g>
  <g transform="translate(199.853409 46.429977)" style="fill: rgb(0.000000%,0.000000%,0.000000%);">
    <use xlink:href="#GLYPHcmr12_80"></use>
    <use xlink:href="#GLYPHcmr12_104" x="7.994497"></use>
  </g>
  <g transform="translate(213.996109 46.429977)" style="fill: rgb(0.000000%,0.000000%,0.000000%);">
    <use xlink:href="#GLYPHcmr12_121"></use>
    <use xlink:href="#GLYPHcmr12_115" x="6.201424"></use>
    <use xlink:href="#GLYPHcmr12_105" x="10.836166"></use>
    <use xlink:href="#GLYPHcmr12_99" x="14.100072"></use>
    <use xlink:href="#GLYPHcmr12_97" x="19.322314"></use>
    <use xlink:href="#GLYPHcmr12_108" x="25.197349"></use>
  </g>
  <g transform="translate(202.812408 56.634659)" style="fill: rgb(0.000000%,0.000000%,0.000000%);">
    <use xlink:href="#GLYPHcmr12_82"></use>
    <use xlink:href="#GLYPHcmr12_101" x="8.647275"></use>
    <use xlink:href="#GLYPHcmr12_97" x="13.869517"></use>
    <use xlink:href="#GLYPHcmr12_108" x="19.744552"></use>
    <use xlink:href="#GLYPHcmr12_105" x="23.008459"></use>
    <use xlink:href="#GLYPHcmr12_116" x="26.272366"></use>
  </g>
  <g transform="translate(233.213409 56.634659)" style="fill: rgb(0.000000%,0.000000%,0.000000%);">
    <use xlink:href="#GLYPHcmr12_121"></use>
  </g>
  <g transform="matrix(1.199997,-0.000000,-0.000000,1.199997,232.132202 88.153793)" style="fill: rgb(0.000000%,0.000000%,0.000000%);">
    <use xlink:href="#GLYPHcmsy10_41"></use>
  </g>
  <path d="M249.448364 119.976471L334.487579 119.976471L334.487579 51.945099L249.448364 51.945099Z" style="stroke:rgb(0.000000%,0.000000%,0.000000%); stroke-width: 2.000000;stroke-linecap: round;stroke-linejoin: round;stroke-miterlimit: 10.000000;fill: none;"></path>
  <g transform="translate(267.500275 88.944687)" style="fill: rgb(0.000000%,0.000000%,0.000000%);">
    <use xlink:href="#GLYPHcmr12_76"></use>
    <use xlink:href="#GLYPHcmr12_97" x="7.341719"></use>
    <use xlink:href="#GLYPHcmr12_110" x="13.216754"></use>
    <use xlink:href="#GLYPHcmr12_103" x="19.744567"></use>
    <use xlink:href="#GLYPHcmr12_117" x="25.619603"></use>
    <use xlink:href="#GLYPHcmr12_97" x="32.147416"></use>
    <use xlink:href="#GLYPHcmr12_103" x="38.022451"></use>
    <use xlink:href="#GLYPHcmr12_101" x="43.897486"></use>
  </g>
  <g transform="matrix(1.199997,-0.000000,-0.000000,1.199997,287.633423 105.352524)" style="fill: rgb(0.000000%,0.000000%,0.000000%);">
    <use xlink:href="#GLYPHcmsy10_85"></use>
  </g>
  <g transform="matrix(1.199997,-0.000000,-0.000000,1.199997,339.848541 88.153793)" style="fill: rgb(0.000000%,0.000000%,0.000000%);">
    <use xlink:href="#GLYPHcmsy10_41"></use>
  </g>
  <g transform="matrix(0.000000,-1.000000,1.000000,0.000000,365.756378 107.096588)" style="fill: rgb(0.000000%,0.000000%,0.000000%);">
    <use xlink:href="#GLYPHcmr12_67"></use>
    <use xlink:href="#GLYPHcmr12_111" x="8.486148"></use>
    <use xlink:href="#GLYPHcmr12_110" x="14.361184"></use>
    <use xlink:href="#GLYPHcmr12_99" x="20.888997"></use>
    <use xlink:href="#GLYPHcmr12_101" x="26.111239"></use>
    <use xlink:href="#GLYPHcmr12_112" x="31.333480"></use>
    <use xlink:href="#GLYPHcmr12_116" x="37.861294"></use>
  </g>
  <g transform="translate(333.894180 45.891525)" style="fill: rgb(0.000000%,0.000000%,0.000000%);">
    <use xlink:href="#GLYPHcmr12_84"></use>
    <use xlink:href="#GLYPHcmr12_104" x="8.486148"></use>
    <use xlink:href="#GLYPHcmr12_101" x="15.013962"></use>
    <use xlink:href="#GLYPHcmr12_111" x="20.236203"></use>
    <use xlink:href="#GLYPHcmr12_114" x="26.111239"></use>
    <use xlink:href="#GLYPHcmr12_101" x="30.680702"></use>
    <use xlink:href="#GLYPHcmr12_116" x="35.902944"></use>
    <use xlink:href="#GLYPHcmr12_105" x="40.472407"></use>
    <use xlink:href="#GLYPHcmr12_99" x="43.736314"></use>
    <use xlink:href="#GLYPHcmr12_97" x="48.958555"></use>
    <use xlink:href="#GLYPHcmr12_108" x="54.833590"></use>
  </g>
  <g transform="translate(347.228073 56.521423)" style="fill: rgb(0.000000%,0.000000%,0.000000%);">
    <use xlink:href="#GLYPHcmr12_87"></use>
  </g>
  <g transform="translate(358.279572 56.521423)" style="fill: rgb(0.000000%,0.000000%,0.000000%);">
    <use xlink:href="#GLYPHcmr12_111"></use>
    <use xlink:href="#GLYPHcmr12_114" x="5.875035"></use>
    <use xlink:href="#GLYPHcmr12_108" x="10.444499"></use>
    <use xlink:href="#GLYPHcmr12_100" x="13.708405"></use>
  </g>
</svg>
